<svg width="1452" height="346" viewBox="0 0 1452 346" fill="none" xmlns="http://www.w3.org/2000/svg">
<rect x="14.5098" y="208" width="1.0364" height="126" fill="#7B808A" fill-opacity="0.65"/>
<rect x="65.2935" y="198" width="1.0364" height="126" fill="#7B808A" fill-opacity="0.65"/>
<rect x="116.077" y="178" width="1.0364" height="126" fill="#7B808A" fill-opacity="0.65"/>
<rect x="166.861" y="148" width="1.03639" height="126" fill="#7B808A" fill-opacity="0.65"/>
<rect x="217.645" y="98" width="1.03639" height="126" fill="#7B808A" fill-opacity="0.65"/>
<rect x="268.429" y="108" width="1.03641" height="126" fill="#7B808A" fill-opacity="0.65"/>
<rect x="319.212" y="166" width="1.03641" height="126" fill="#7B808A" fill-opacity="0.65"/>
<rect x="369.996" y="220" width="1.03638" height="126" fill="#7B808A" fill-opacity="0.65"/>
<rect x="420.779" y="154" width="1.03641" height="126" fill="#7B808A" fill-opacity="0.65"/>
<rect x="471.563" y="198" width="1.03641" height="126" fill="#7B808A" fill-opacity="0.65"/>
<rect x="522.347" y="124" width="1.03638" height="126" fill="#7B808A" fill-opacity="0.65"/>
<rect x="573.131" y="30" width="1.03644" height="126" fill="#7B808A" fill-opacity="0.65"/>
<rect x="623.914" width="1.03638" height="126" fill="#7B808A" fill-opacity="0.65"/>
<rect x="674.698" y="50" width="1.03638" height="126" fill="#7B808A" fill-opacity="0.65"/>
<rect x="725.481" y="100" width="1.03638" height="126" fill="#7B808A" fill-opacity="0.65"/>
<rect x="776.266" y="173" width="1.03638" height="126" fill="#7B808A" fill-opacity="0.65"/>
<rect x="827.049" y="143" width="1.03644" height="126" fill="#7B808A" fill-opacity="0.65"/>
<rect x="877.833" y="88" width="1.03638" height="126" fill="#7B808A" fill-opacity="0.65"/>
<rect x="928.617" y="135" width="1.03638" height="126" fill="#7B808A" fill-opacity="0.65"/>
<rect x="979.4" y="113" width="1.03644" height="126" fill="#7B808A" fill-opacity="0.65"/>
<rect x="1030.18" y="133" width="1.03638" height="126" fill="#7B808A" fill-opacity="0.65"/>
<rect x="1080.97" y="156" width="1.03638" height="126" fill="#7B808A" fill-opacity="0.65"/>
<rect x="1131.75" y="193" width="1.03638" height="126" fill="#7B808A" fill-opacity="0.65"/>
<rect x="1182.54" y="163" width="1.03638" height="126" fill="#7B808A" fill-opacity="0.65"/>
<rect x="1233.32" y="100" width="1.03638" height="126" fill="#7B808A" fill-opacity="0.65"/>
<rect x="1284.1" y="54" width="1.03638" height="126" fill="#7B808A" fill-opacity="0.65"/>
<rect x="1334.89" y="70" width="1.03638" height="126" fill="#7B808A" fill-opacity="0.65"/>
<rect x="1385.67" y="90" width="1.03638" height="126" fill="#7B808A" fill-opacity="0.65"/>
<rect x="1436.45" y="61" width="1.03638" height="126" fill="#7B808A" fill-opacity="0.65"/>
<rect y="268" width="30.0557" height="6" fill="url(#paint0_linear)"/>
<rect x="50.7837" y="239" width="30.0557" height="44" fill="url(#paint1_linear)"/>
<rect x="101.567" y="217" width="30.0557" height="48" fill="url(#paint2_linear)"/>
<rect x="152.351" y="209" width="30.0557" height="4" fill="url(#paint3_linear)"/>
<rect x="203.135" y="133" width="30.0557" height="56" fill="url(#paint4_linear)"/>
<rect x="253.919" y="166" width="30.0557" height="10" fill="url(#paint5_linear)"/>
<rect x="304.702" y="198" width="30.0557" height="62" fill="url(#paint6_linear)"/>
<rect x="355.486" y="234" width="30.0557" height="98" fill="url(#paint7_linear)"/>
<rect x="406.27" y="187" width="30.0557" height="60" fill="url(#paint8_linear)"/>
<rect x="457.054" y="224" width="30.0557" height="74" fill="url(#paint9_linear)"/>
<rect x="507.837" y="138" width="30.0557" height="98" fill="url(#paint10_linear)"/>
<rect width="30.0557" height="10" transform="matrix(1 0 0 -1 558.621 98)" fill="url(#paint11_linear)"/>
<rect width="30.0557" height="22" transform="matrix(1 0 0 -1 609.404 74)" fill="url(#paint12_linear)"/>
<rect width="30.0557" height="40" transform="matrix(1 0 0 -1 660.188 133)" fill="url(#paint13_linear)"/>
<rect width="30.0557" height="60" transform="matrix(1 0 0 -1 710.973 193)" fill="url(#paint14_linear)"/>
<rect width="30.0557" height="32" transform="matrix(1 0 0 -1 761.756 252)" fill="url(#paint15_linear)"/>
<rect width="30.0557" height="16" transform="matrix(1 0 0 -1 812.54 214)" fill="url(#paint16_linear)"/>
<rect width="30.0557" height="36" transform="matrix(1 0 0 -1 863.323 169)" fill="url(#paint17_linear)"/>
<rect width="30.0557" height="84" transform="matrix(1 0 0 -1 914.107 240)" fill="url(#paint18_linear)"/>
<rect width="30.0557" height="22" transform="matrix(1 0 0 -1 964.891 187)" fill="url(#paint19_linear)"/>
<rect width="30.0557" height="46" transform="matrix(1 0 0 -1 1015.67 219)" fill="url(#paint20_linear)"/>
<rect width="30.0557" height="18" transform="matrix(1 0 0 -1 1066.46 228)" fill="url(#paint21_linear)"/>
<rect width="30.0557" height="56" transform="matrix(1 0 0 -1 1117.24 284)" fill="url(#paint22_linear)"/>
<rect width="30.0557" height="32" transform="matrix(1 0 0 -1 1168.03 242)" fill="url(#paint23_linear)"/>
<rect width="30.0557" height="20" transform="matrix(1 0 0 -1 1218.81 173)" fill="url(#paint24_linear)"/>
<rect width="30.0557" height="70" transform="matrix(1 0 0 -1 1269.59 152)" fill="url(#paint25_linear)"/>
<rect width="30.0557" height="70" transform="matrix(1 0 0 -1 1269.59 152)" fill="url(#paint26_linear)"/>
<rect width="30.0557" height="40" transform="matrix(1 0 0 -1 1320.38 153)" fill="url(#paint27_linear)"/>
<rect width="30.0557" height="10" transform="matrix(1 0 0 -1 1371.16 158)" fill="url(#paint28_linear)"/>
<rect width="30.0557" height="32" transform="matrix(1 0 0 -1 1421.94 140)" fill="url(#paint29_linear)"/>
<defs>
<linearGradient id="paint0_linear" x1="15.0278" y1="209.5" x2="15.0278" y2="333" gradientUnits="userSpaceOnUse">
<stop stop-color="#373D48"/>
<stop offset="1" stop-color="#222631"/>
</linearGradient>
<linearGradient id="paint1_linear" x1="65.8115" y1="-190" x2="65.8115" y2="715.667" gradientUnits="userSpaceOnUse">
<stop stop-color="#373D48"/>
<stop offset="1" stop-color="#222631"/>
</linearGradient>
<linearGradient id="paint2_linear" x1="116.595" y1="-251" x2="116.595" y2="737" gradientUnits="userSpaceOnUse">
<stop stop-color="#373D48"/>
<stop offset="1" stop-color="#222631"/>
</linearGradient>
<linearGradient id="paint3_linear" x1="167.379" y1="170" x2="167.379" y2="252.333" gradientUnits="userSpaceOnUse">
<stop stop-color="#373D48"/>
<stop offset="1" stop-color="#222631"/>
</linearGradient>
<linearGradient id="paint4_linear" x1="218.163" y1="-413" x2="218.163" y2="739.667" gradientUnits="userSpaceOnUse">
<stop stop-color="#373D48"/>
<stop offset="1" stop-color="#222631"/>
</linearGradient>
<linearGradient id="paint5_linear" x1="268.947" y1="68.5" x2="268.947" y2="274.333" gradientUnits="userSpaceOnUse">
<stop stop-color="#373D48"/>
<stop offset="1" stop-color="#222631"/>
</linearGradient>
<linearGradient id="paint6_linear" x1="319.73" y1="-406.5" x2="319.73" y2="869.667" gradientUnits="userSpaceOnUse">
<stop stop-color="#373D48"/>
<stop offset="1" stop-color="#222631"/>
</linearGradient>
<linearGradient id="paint7_linear" x1="370.514" y1="-721.5" x2="370.514" y2="1295.67" gradientUnits="userSpaceOnUse">
<stop stop-color="#373D48"/>
<stop offset="1" stop-color="#222631"/>
</linearGradient>
<linearGradient id="paint8_linear" x1="421.297" y1="-398" x2="421.297" y2="837" gradientUnits="userSpaceOnUse">
<stop stop-color="#373D48"/>
<stop offset="1" stop-color="#222631"/>
</linearGradient>
<linearGradient id="paint9_linear" x1="472.082" y1="-497.5" x2="472.082" y2="1025.67" gradientUnits="userSpaceOnUse">
<stop stop-color="#373D48"/>
<stop offset="1" stop-color="#222631"/>
</linearGradient>
<linearGradient id="paint10_linear" x1="522.865" y1="-817.5" x2="522.865" y2="1199.67" gradientUnits="userSpaceOnUse">
<stop stop-color="#373D48"/>
<stop offset="1" stop-color="#222631"/>
</linearGradient>
<linearGradient id="paint11_linear" x1="15.0278" y1="-97.5" x2="15.0278" y2="108.333" gradientUnits="userSpaceOnUse">
<stop stop-color="#373D48"/>
<stop offset="1" stop-color="#222631"/>
</linearGradient>
<linearGradient id="paint12_linear" x1="15.0278" y1="-214.5" x2="15.0278" y2="238.333" gradientUnits="userSpaceOnUse">
<stop stop-color="#373D48"/>
<stop offset="1" stop-color="#222631"/>
</linearGradient>
<linearGradient id="paint13_linear" x1="15.0278" y1="-390" x2="15.0278" y2="433.333" gradientUnits="userSpaceOnUse">
<stop stop-color="#373D48"/>
<stop offset="1" stop-color="#222631"/>
</linearGradient>
<linearGradient id="paint14_linear" x1="15.0278" y1="-585" x2="15.0278" y2="650" gradientUnits="userSpaceOnUse">
<stop stop-color="#373D48"/>
<stop offset="1" stop-color="#222631"/>
</linearGradient>
<linearGradient id="paint15_linear" x1="15.0278" y1="-312" x2="15.0278" y2="346.667" gradientUnits="userSpaceOnUse">
<stop stop-color="#373D48"/>
<stop offset="1" stop-color="#222631"/>
</linearGradient>
<linearGradient id="paint16_linear" x1="15.0278" y1="-156" x2="15.0278" y2="173.333" gradientUnits="userSpaceOnUse">
<stop stop-color="#373D48"/>
<stop offset="1" stop-color="#222631"/>
</linearGradient>
<linearGradient id="paint17_linear" x1="15.0278" y1="-351" x2="15.0278" y2="390" gradientUnits="userSpaceOnUse">
<stop stop-color="#373D48"/>
<stop offset="1" stop-color="#222631"/>
</linearGradient>
<linearGradient id="paint18_linear" x1="15.0278" y1="-819" x2="15.0278" y2="910" gradientUnits="userSpaceOnUse">
<stop stop-color="#373D48"/>
<stop offset="1" stop-color="#222631"/>
</linearGradient>
<linearGradient id="paint19_linear" x1="15.0278" y1="-214.5" x2="15.0278" y2="238.333" gradientUnits="userSpaceOnUse">
<stop stop-color="#373D48"/>
<stop offset="1" stop-color="#222631"/>
</linearGradient>
<linearGradient id="paint20_linear" x1="15.0279" y1="-448.5" x2="15.0279" y2="498.333" gradientUnits="userSpaceOnUse">
<stop stop-color="#373D48"/>
<stop offset="1" stop-color="#222631"/>
</linearGradient>
<linearGradient id="paint21_linear" x1="15.0278" y1="-175.5" x2="15.0278" y2="195" gradientUnits="userSpaceOnUse">
<stop stop-color="#373D48"/>
<stop offset="1" stop-color="#222631"/>
</linearGradient>
<linearGradient id="paint22_linear" x1="15.0278" y1="-546" x2="15.0278" y2="606.667" gradientUnits="userSpaceOnUse">
<stop stop-color="#373D48"/>
<stop offset="1" stop-color="#222631"/>
</linearGradient>
<linearGradient id="paint23_linear" x1="15.0278" y1="-312" x2="15.0278" y2="346.667" gradientUnits="userSpaceOnUse">
<stop stop-color="#373D48"/>
<stop offset="1" stop-color="#222631"/>
</linearGradient>
<linearGradient id="paint24_linear" x1="15.0278" y1="-195" x2="15.0278" y2="216.667" gradientUnits="userSpaceOnUse">
<stop stop-color="#373D48"/>
<stop offset="1" stop-color="#222631"/>
</linearGradient>
<linearGradient id="paint25_linear" x1="15.0278" y1="-682.5" x2="15.0278" y2="758.333" gradientUnits="userSpaceOnUse">
<stop stop-color="#373D48"/>
<stop offset="1" stop-color="#222631"/>
</linearGradient>
<linearGradient id="paint26_linear" x1="15.0278" y1="-682.5" x2="15.0278" y2="758.333" gradientUnits="userSpaceOnUse">
<stop stop-color="#373D48"/>
<stop offset="1" stop-color="#222631"/>
</linearGradient>
<linearGradient id="paint27_linear" x1="15.0278" y1="-390" x2="15.0278" y2="433.333" gradientUnits="userSpaceOnUse">
<stop stop-color="#373D48"/>
<stop offset="1" stop-color="#222631"/>
</linearGradient>
<linearGradient id="paint28_linear" x1="15.0278" y1="-97.5" x2="15.0278" y2="108.333" gradientUnits="userSpaceOnUse">
<stop stop-color="#373D48"/>
<stop offset="1" stop-color="#222631"/>
</linearGradient>
<linearGradient id="paint29_linear" x1="15.0278" y1="-312" x2="15.0278" y2="346.667" gradientUnits="userSpaceOnUse">
<stop stop-color="#373D48"/>
<stop offset="1" stop-color="#222631"/>
</linearGradient>
</defs>
</svg>
