<svg width="144" height="141" viewBox="0 0 144 141" fill="none" xmlns="http://www.w3.org/2000/svg">
<g filter="url(#filter0_di)">
<path d="M58.9173 65.6362C58.7385 65.488 58.5594 65.3436 58.3922 65.1926C50.0612 57.9067 50.2077 49.793 55.2459 44.0336C60.2841 38.2742 68.3036 37.0464 76.6364 44.3343L76.8498 44.5273C72.2222 48.0544 64.349 55.133 58.9173 65.6362Z" fill="url(#paint0_linear)"/>
<path d="M76.8521 44.528C85.0624 51.8499 90.4142 64.7191 85.4206 70.4211C80.4871 76.063 67.2879 72.6263 58.9189 65.637C64.3508 55.1338 72.2244 48.055 76.8521 44.528Z" fill="url(#paint1_linear)"/>
<path d="M57.3659 51.5573C53.9422 48.1196 50.2467 44.9642 46.3154 42.1216C44.3287 40.7301 42.2617 39.4122 40.0182 38.3856C38.8874 37.8573 37.7056 37.4456 36.4912 37.1572C35.2264 36.835 33.9028 36.8204 32.6311 37.1144C31.3108 37.4605 30.1623 38.2772 29.4015 39.4108C28.6303 40.5131 28.2144 41.7302 27.948 42.9881C27.6815 44.246 27.67 45.6774 28.3115 46.9671C28.953 48.2569 30.2 49.1184 31.4438 49.5519C32.6899 49.9647 34.0078 50.1161 35.3151 49.9966C36.603 49.8875 37.8866 49.6195 39.1041 48.9432C39.6942 48.5882 40.3385 48.1536 40.7145 47.3095C40.8982 46.8702 40.9378 46.3839 40.8274 45.9207C40.7156 45.5091 40.5208 45.1248 40.255 44.7913C39.2435 43.6624 38.0609 43.1346 36.9087 42.6093C36.7022 42.5249 36.4712 42.5237 36.2639 42.6058C36.0565 42.688 35.889 42.8471 35.7963 43.05C35.7036 43.2529 35.6929 43.4839 35.7665 43.6945C35.8401 43.9051 35.9922 44.079 36.191 44.18L36.2157 44.182L36.2525 44.1983C37.294 44.6306 38.3557 45.1658 38.9726 45.8424C39.2432 46.2005 39.3067 46.4291 39.2097 46.6829C39.1127 46.9366 38.7375 47.3015 38.3066 47.5529C37.4206 48.0729 36.2944 48.3536 35.1902 48.4586C34.0912 48.5804 32.979 48.475 31.9225 48.1489C30.9115 47.8107 30.0053 47.2176 29.5727 46.3173C29.1401 45.4169 29.0665 44.3262 29.2773 43.2375C29.6675 41.0214 30.8401 38.8326 32.9532 38.2941C34.0373 38.0286 35.1693 38.0277 36.2539 38.2914C37.393 38.5428 38.5036 38.9095 39.5684 39.386C41.7311 40.3259 43.7801 41.5849 45.758 42.9185C49.6954 45.6635 53.4045 48.7224 56.8493 52.0653C56.9193 52.1264 57.0101 52.1583 57.1029 52.1545C57.1958 52.1507 57.2837 52.1114 57.3485 52.0448C57.4133 51.9782 57.4502 51.8893 57.4514 51.7963C57.4527 51.7033 57.4184 51.6134 57.3555 51.545L57.3659 51.5573Z" fill="url(#paint2_linear)"/>
<path d="M62.8937 45.1544C59.1228 42.1864 55.5982 38.9183 52.3542 35.3821C50.7681 33.5965 49.2531 31.7364 48.0295 29.7188C47.4158 28.7266 46.9047 27.6747 46.504 26.5791C46.0971 25.54 45.9474 24.418 46.0676 23.3086C46.3181 21.1436 48.3281 19.6887 50.4736 19.0081C51.5254 18.6547 52.6315 18.55 53.5659 18.8894C54.5142 19.1993 55.2225 20.0185 55.6872 20.9705C56.1514 21.9743 56.404 23.063 56.4292 24.1686C56.4728 25.2753 56.3446 26.4291 55.947 27.374C55.755 27.8336 55.4711 28.2494 55.2061 28.3863C54.9411 28.5232 54.7327 28.4814 54.3421 28.2607C53.5905 27.7396 52.9181 26.7592 52.3503 25.7855L52.3319 25.7534C52.2115 25.5662 52.0235 25.4328 51.8071 25.3808C51.5907 25.3289 51.3626 25.3624 51.1703 25.4745C50.978 25.5866 50.8365 25.7686 50.7751 25.9825C50.7138 26.1964 50.7374 26.4258 50.841 26.6227L50.8561 26.6487C51.5325 27.7191 52.2064 28.8217 53.4731 29.6749C53.8387 29.8928 54.2448 30.0343 54.6667 30.0907C55.1394 30.1392 55.6154 30.037 56.0266 29.7986C56.8124 29.3128 57.1572 28.6175 57.4302 27.9832C57.9383 26.6885 58.0332 25.3812 57.9684 24.0896C57.9124 22.7784 57.5868 21.4927 57.012 20.3129C56.4184 19.1386 55.4163 17.9883 54.0335 17.5532C52.672 17.0894 51.2503 17.2963 50.0438 17.7211C48.8372 18.1459 47.6861 18.7337 46.6982 19.6381C45.6765 20.5422 45.0211 21.789 44.8556 23.1432C44.731 24.4428 44.9217 25.7533 45.4114 26.9636C45.8589 28.1261 46.4239 29.2401 47.0975 30.288C48.4128 32.3742 49.994 34.2435 51.6371 36.0319C54.9758 39.5513 58.5938 42.7951 62.4555 45.7314C62.5312 45.7905 62.6272 45.8171 62.7225 45.8053C62.8178 45.7935 62.9045 45.7444 62.9635 45.6688C63.0226 45.5931 63.0492 45.497 63.0374 45.4018C63.0257 45.3065 62.9765 45.2198 62.9008 45.1607L62.8937 45.1544Z" fill="url(#paint3_linear)"/>
<path d="M65.8423 52.0862C65.8423 52.0862 99.9334 65.9577 105.77 52.7297C111.607 39.5018 91.1113 34.8524 65.8423 52.0862Z" fill="#BDD0FB"/>
<path d="M65.8431 52.0883C65.8431 52.0883 84.1292 84.0258 71.7934 91.574C59.4575 99.1223 52.1417 79.4272 65.8431 52.0883Z" fill="#BDD0FB"/>
<path d="M66.518 54.5462C66.518 54.5462 69.1842 91.2549 54.8032 92.7272C40.4222 94.1994 42.3371 73.263 66.518 54.5462Z" fill="#91B3FA"/>
<path d="M69.1315 51.562C69.1315 51.562 105.869 49.3123 105.408 34.8644C104.947 20.4165 84.4581 25.0932 69.1315 51.562Z" fill="#91B3FA"/>
<path d="M67.0454 53.1325C67.0454 53.1325 45.493 59.722 40.2687 65.698C34.6381 72.1393 34.7126 84.4129 35.1616 90.5565C35.1815 90.8182 35.2837 91.067 35.4537 91.267C35.6236 91.467 35.8526 91.6081 36.1077 91.6699C36.3627 91.7318 36.6308 91.7113 36.8736 91.6114C37.1163 91.5115 37.3211 91.3372 37.4587 91.1137C44.797 79.4488 55.3167 66.5288 67.0454 53.1325Z" fill="url(#paint4_linear)"/>
<path d="M66.1334 54.176C66.1334 54.176 69.792 31.9387 75.018 25.9656C80.6515 19.5351 92.8268 17.9677 98.9798 17.5902C99.2417 17.5752 99.5016 17.6436 99.7223 17.7854C99.943 17.9273 100.113 18.1353 100.208 18.3797C100.304 18.6241 100.319 18.8924 100.252 19.1461C100.186 19.3998 100.04 19.6259 99.8373 19.792C89.2494 28.6216 77.8478 40.7673 66.1334 54.176Z" fill="url(#paint5_linear)"/>
</g>
<defs>
<filter id="filter0_di" x="0.776051" y="0.289551" width="142.996" height="139.91" filterUnits="userSpaceOnUse" color-interpolation-filters="sRGB">
<feFlood flood-opacity="0" result="BackgroundImageFix"/>
<feColorMatrix in="SourceAlpha" type="matrix" values="0 0 0 0 0 0 0 0 0 0 0 0 0 0 0 0 0 0 127 0"/>
<feOffset dx="5" dy="15"/>
<feGaussianBlur stdDeviation="16"/>
<feColorMatrix type="matrix" values="0 0 0 0 0.01625 0 0 0 0 0.108008 0 0 0 0 0.433333 0 0 0 0.32 0"/>
<feBlend mode="normal" in2="BackgroundImageFix" result="effect1_dropShadow"/>
<feBlend mode="normal" in="SourceGraphic" in2="effect1_dropShadow" result="shape"/>
<feColorMatrix in="SourceAlpha" type="matrix" values="0 0 0 0 0 0 0 0 0 0 0 0 0 0 0 0 0 0 127 0" result="hardAlpha"/>
<feOffset dy="-5"/>
<feGaussianBlur stdDeviation="5.5"/>
<feComposite in2="hardAlpha" operator="arithmetic" k2="-1" k3="1"/>
<feColorMatrix type="matrix" values="0 0 0 0 0.0309375 0 0 0 0 0.135169 0 0 0 0 0.3375 0 0 0 0.81 0"/>
<feBlend mode="normal" in2="shape" result="effect2_innerShadow"/>
</filter>
<linearGradient id="paint0_linear" x1="28.2265" y1="20.5066" x2="77.7434" y2="63.7731" gradientUnits="userSpaceOnUse">
<stop stop-color="#4F52FF"/>
<stop offset="1" stop-color="#4042E2"/>
</linearGradient>
<linearGradient id="paint1_linear" x1="-62641.7" y1="45897" x2="-54460.3" y2="56368.2" gradientUnits="userSpaceOnUse">
<stop stop-color="#09005D"/>
<stop offset="1" stop-color="#1A0F91"/>
</linearGradient>
<linearGradient id="paint2_linear" x1="-4335.62" y1="-28937.6" x2="6048.96" y2="-27938" gradientUnits="userSpaceOnUse">
<stop stop-color="#4F52FF"/>
<stop offset="1" stop-color="#4042E2"/>
</linearGradient>
<linearGradient id="paint3_linear" x1="110.046" y1="-55539.3" x2="6974.57" y2="-54948.2" gradientUnits="userSpaceOnUse">
<stop stop-color="#4F52FF"/>
<stop offset="1" stop-color="#4042E2"/>
</linearGradient>
<linearGradient id="paint4_linear" x1="-55669.8" y1="63535.3" x2="-62732.4" y2="71512.3" gradientUnits="userSpaceOnUse">
<stop stop-color="#09005D"/>
<stop offset="1" stop-color="#1A0F91"/>
</linearGradient>
<linearGradient id="paint5_linear" x1="-46656.3" y1="53409.3" x2="-53409.5" y2="61037.9" gradientUnits="userSpaceOnUse">
<stop stop-color="#09005D"/>
<stop offset="1" stop-color="#1A0F91"/>
</linearGradient>
</defs>
</svg>
