<svg width="113" height="115" viewBox="0 0 113 115" fill="none" xmlns="http://www.w3.org/2000/svg">
<g filter="url(#filter0_di)">
<path d="M44.9823 35.3754C45.0945 35.2842 45.2045 35.1924 45.3171 35.1087C50.7805 30.9066 55.7184 31.9831 58.6231 35.7608C61.5279 39.5386 61.3023 44.5861 55.8374 48.789L55.6936 48.8958C54.1023 45.6404 50.7366 39.9706 44.9823 35.3754Z" fill="url(#paint0_linear)"/>
<path d="M55.6929 48.8972C50.2222 53.0211 41.711 54.7243 38.8359 50.9807C35.99 47.2812 39.6947 39.6376 44.9817 35.3762C50.7359 39.9716 54.1016 45.6416 55.6929 48.8972Z" fill="url(#paint1_linear)"/>
<path d="M53.77 36.1405C56.2861 34.4675 58.6629 32.5943 60.8773 30.5389C61.9689 29.4948 63.0252 28.3926 63.9252 27.1473C64.3855 26.5208 64.7806 25.8491 65.1045 25.1425C65.4551 24.4091 65.6251 23.6025 65.6002 22.79C65.5494 21.9415 65.1903 21.1407 64.5905 20.5381C64.0111 19.9331 63.3183 19.531 62.5824 19.2152C61.8465 18.8994 60.9737 18.7183 60.1079 18.9532C59.2421 19.1881 58.5642 19.845 58.1482 20.5519C57.7445 21.2628 57.4917 22.0493 57.4056 22.8623C57.3156 23.6622 57.3232 24.4787 57.5881 25.3047C57.7332 25.7083 57.9202 26.1546 58.39 26.487C58.636 26.6526 58.9282 26.7359 59.2245 26.7249C59.4895 26.7066 59.748 26.6344 59.984 26.5127C60.7965 26.0322 61.2627 25.3741 61.7238 24.7342C61.8004 24.6184 61.8293 24.4775 61.8043 24.3408C61.7793 24.2042 61.7025 24.0825 61.5899 24.0012C61.4772 23.9199 61.3375 23.8853 61.1999 23.9046C61.0623 23.9239 60.9376 23.9957 60.8517 24.1049L60.8475 24.1197L60.833 24.1402C60.4423 24.7237 59.9863 25.3071 59.498 25.6016C59.2463 25.7232 59.099 25.7342 58.9558 25.6441C58.8126 25.554 58.6354 25.2805 58.5343 24.9867C58.3245 24.3823 58.29 23.6603 58.3602 22.9731C58.4195 22.2871 58.6191 21.6206 58.9469 21.0149C59.2764 20.4386 59.7489 19.9573 60.3514 19.8026C60.9539 19.6479 61.6291 19.7356 62.2684 19.9968C63.5744 20.5047 64.7686 21.4871 64.8405 22.8432C64.8708 23.5377 64.7336 24.2292 64.4406 24.8596C64.1485 25.5247 63.7894 26.1584 63.3689 26.7508C62.5318 27.9574 61.5135 29.0557 60.4584 30.1016C58.3029 32.1725 55.9834 34.0658 53.5226 35.7631C53.4768 35.7985 53.4462 35.85 53.4373 35.9072C53.4283 35.9644 53.4416 36.0228 53.4744 36.0705C53.5072 36.1182 53.557 36.1515 53.6137 36.1636C53.6703 36.1757 53.7294 36.1657 53.7788 36.1356L53.77 36.1405Z" fill="url(#paint2_linear)"/>
<path d="M57.0082 40.2956C59.2797 38.3535 61.7045 36.5983 64.2589 35.0471C65.5425 34.2956 66.8629 33.5965 68.2441 33.0947C68.9247 32.8405 69.6294 32.6563 70.3472 32.5448C71.0314 32.4228 71.7349 32.4678 72.3979 32.6761C73.6897 33.0925 74.3338 34.4971 74.4885 35.8903C74.5764 36.5758 74.5058 37.2641 74.1849 37.7935C73.8802 38.335 73.2937 38.668 72.6557 38.836C71.9862 38.9974 71.2905 39.0192 70.6122 38.9001C69.9309 38.7921 69.2418 38.5734 68.7131 38.2157C68.4557 38.0425 68.2362 37.8185 68.1849 37.64C68.1335 37.4615 68.1844 37.3393 68.3667 37.1276C68.7764 36.7319 69.457 36.4405 70.1208 36.2121L70.1426 36.2048C70.2716 36.154 70.376 36.0554 70.434 35.9296C70.4921 35.8037 70.4993 35.6603 70.4542 35.5293C70.4092 35.3982 70.3152 35.2896 70.192 35.2261C70.0688 35.1626 69.9259 35.1491 69.793 35.1885L69.7753 35.1945C69.0392 35.4775 68.2838 35.7549 67.6087 36.4248C67.4311 36.6216 67.2952 36.8524 67.2095 37.1032C67.1224 37.3861 67.1269 37.6892 67.2225 37.9693C67.4236 38.5084 67.8063 38.8036 68.1605 39.0475C68.8895 39.5153 69.6764 39.7323 70.4732 39.8498C71.2808 39.9751 72.1057 39.9327 72.8962 39.7251C73.6857 39.5054 74.5101 39.0333 74.9441 38.2416C75.393 37.4665 75.4395 36.573 75.3268 35.7844C75.2141 34.9958 74.9952 34.2212 74.563 33.5078C74.135 32.7738 73.4533 32.2218 72.6463 31.956C71.8677 31.7218 71.0441 31.6789 70.2453 31.8308C69.4808 31.9627 68.7317 32.1722 68.0097 32.4562C66.5755 33.0058 65.2415 33.7441 63.9493 34.5301C61.3936 36.1412 58.9723 37.9564 56.7091 39.9578C56.6638 39.9968 56.6359 40.0523 56.6315 40.1119C56.6271 40.1715 56.6466 40.2304 56.6856 40.2757C56.7246 40.321 56.7801 40.3489 56.8397 40.3533C56.8993 40.3577 56.9582 40.3383 57.0035 40.2992L57.0082 40.2956Z" fill="url(#paint3_linear)"/>
<path d="M52.4159 41.2534C52.4159 41.2534 39.7966 60.3879 47.1658 65.5619C54.5351 70.736 59.868 58.7834 52.4159 41.2534Z" fill="#BDD0FB"/>
<path d="M52.4145 41.2535C52.4145 41.2535 30.6836 48.5372 27.5739 40.0846C24.4642 31.632 37.3834 29.5595 52.4145 41.2535Z" fill="#BDD0FB"/>
<path d="M50.8312 41.3668C50.8312 41.3668 28.0862 38.5298 28.9364 29.5672C29.7866 20.6046 42.341 24.321 50.8312 41.3668Z" fill="#91B3FA"/>
<path d="M52.3359 43.3259C52.3359 43.3259 49.2411 66.0377 58.1215 67.5138C67.0019 68.9899 66.6379 55.9068 52.3359 43.3259Z" fill="#91B3FA"/>
<path d="M51.6304 41.861C51.6304 41.861 50.2275 27.8958 47.213 23.9779C43.9638 19.7554 36.4584 18.3079 32.6514 17.8348C32.4892 17.8151 32.3248 17.8473 32.182 17.9268C32.0391 18.0062 31.9251 18.1289 31.8563 18.2772C31.7875 18.4254 31.7674 18.5917 31.7989 18.7521C31.8304 18.9125 31.9119 19.0588 32.0317 19.17C38.2636 25.071 44.8751 33.0678 51.6304 41.861Z" fill="url(#paint4_linear)"/>
<path d="M51.1041 41.177C51.1041 41.177 64.241 46.1167 67.2535 50.0351C70.4958 54.2582 69.972 61.8852 69.4541 65.6892C69.4314 65.8509 69.358 66.0014 69.2445 66.1189C69.1311 66.2364 68.9833 66.315 68.8225 66.3435C68.6616 66.3719 68.4959 66.3486 68.349 66.277C68.2022 66.2055 68.0817 66.0893 68.005 65.945C63.9001 58.4042 57.8688 49.9629 51.1041 41.177Z" fill="url(#paint5_linear)"/>
</g>
<defs>
<filter id="filter0_di" x="0.107849" y="0.829102" width="112.271" height="113.799" filterUnits="userSpaceOnUse" color-interpolation-filters="sRGB">
<feFlood flood-opacity="0" result="BackgroundImageFix"/>
<feColorMatrix in="SourceAlpha" type="matrix" values="0 0 0 0 0 0 0 0 0 0 0 0 0 0 0 0 0 0 127 0"/>
<feOffset dx="5" dy="15"/>
<feGaussianBlur stdDeviation="16"/>
<feColorMatrix type="matrix" values="0 0 0 0 0.01625 0 0 0 0 0.108008 0 0 0 0 0.433333 0 0 0 0.32 0"/>
<feBlend mode="normal" in2="BackgroundImageFix" result="effect1_dropShadow"/>
<feBlend mode="normal" in="SourceGraphic" in2="effect1_dropShadow" result="shape"/>
<feColorMatrix in="SourceAlpha" type="matrix" values="0 0 0 0 0 0 0 0 0 0 0 0 0 0 0 0 0 0 127 0" result="hardAlpha"/>
<feOffset dy="-5"/>
<feGaussianBlur stdDeviation="5.5"/>
<feComposite in2="hardAlpha" operator="arithmetic" k2="-1" k3="1"/>
<feColorMatrix type="matrix" values="0 0 0 0 0.0309375 0 0 0 0 0.135169 0 0 0 0 0.3375 0 0 0 0.81 0"/>
<feBlend mode="normal" in2="shape" result="effect2_innerShadow"/>
</filter>
<linearGradient id="paint0_linear" x1="76.2795" y1="22.1201" x2="43.8301" y2="47.1005" gradientUnits="userSpaceOnUse">
<stop stop-color="#4F52FF"/>
<stop offset="1" stop-color="#4042E2"/>
</linearGradient>
<linearGradient id="paint1_linear" x1="-20320.3" y1="-43835.5" x2="-27711.1" y2="-40112.3" gradientUnits="userSpaceOnUse">
<stop stop-color="#09005D"/>
<stop offset="1" stop-color="#1A0F91"/>
</linearGradient>
<linearGradient id="paint2_linear" x1="18293.9" y1="879.409" x2="16420.1" y2="7100.42" gradientUnits="userSpaceOnUse">
<stop stop-color="#4F52FF"/>
<stop offset="1" stop-color="#4042E2"/>
</linearGradient>
<linearGradient id="paint3_linear" x1="34000.7" y1="6830.66" x2="32804.6" y2="10951.4" gradientUnits="userSpaceOnUse">
<stop stop-color="#4F52FF"/>
<stop offset="1" stop-color="#4042E2"/>
</linearGradient>
<linearGradient id="paint4_linear" x1="-31941.3" y1="-41722.9" x2="-35954.4" y2="-47006.9" gradientUnits="userSpaceOnUse">
<stop stop-color="#09005D"/>
<stop offset="1" stop-color="#1A0F91"/>
</linearGradient>
<linearGradient id="paint5_linear" x1="-26853.1" y1="-34985.9" x2="-30691" y2="-40038.6" gradientUnits="userSpaceOnUse">
<stop stop-color="#09005D"/>
<stop offset="1" stop-color="#1A0F91"/>
</linearGradient>
</defs>
</svg>
