<svg width="77" height="82" viewBox="0 0 77 82" fill="none" xmlns="http://www.w3.org/2000/svg">
<g filter="url(#filter0_d)">
<path d="M42.6031 50.294C39.8178 51.0618 36.8884 51.1881 34.0448 50.6631C31.2011 50.138 28.5206 48.9758 26.2134 47.2677C23.9063 45.5595 22.0352 43.3519 20.7471 40.818C19.4589 38.284 18.7887 35.4927 18.789 32.6629C18.7837 30.6714 19.1171 28.6928 19.7756 26.8081C20.5821 24.436 21.8767 22.2504 23.5797 20.3859C25.2826 18.5214 27.3578 17.0175 29.6775 15.9668C31.9972 14.9161 34.5123 14.3409 37.068 14.2765C39.6236 14.2121 42.1657 14.66 44.5376 15.5925C46.9096 16.525 49.0613 17.9224 50.8601 19.6986C52.659 21.4749 54.0669 23.5924 54.9973 25.9208C55.9277 28.2492 56.3609 30.7392 56.27 33.2374C56.1792 35.7357 55.5664 38.1893 54.4693 40.4472" stroke="#F68A3F" stroke-width="2" stroke-miterlimit="10"/>
<path d="M61.1304 32.663C61.1329 35.4847 60.6071 38.283 59.5791 40.9196C57.8899 40.6401 56.182 40.4822 54.4692 40.4472C50.5746 40.3825 46.6874 40.805 42.9024 41.7047L42.603 50.294C42.4919 51.9021 42.7236 53.5152 43.2834 55.0311C39.8036 55.8897 36.1692 55.9603 32.6572 55.2376C29.1452 54.5149 25.8482 53.018 23.0173 50.8607C20.1865 48.7035 17.8966 45.943 16.3219 42.7894C14.7473 39.6358 13.9295 36.1724 13.9309 32.663C13.9296 31.3024 14.0503 29.9444 14.2915 28.6045C15.3112 22.9107 18.4793 17.7986 23.1691 14.2795C27.8588 10.7605 33.7285 9.09088 39.6169 9.60109C45.5053 10.1113 50.9833 12.7641 54.9672 17.0347C58.9511 21.3053 61.1505 26.8826 61.1304 32.663Z" stroke="#F68A3F" stroke-width="2" stroke-miterlimit="10"/>
<path d="M59.5587 40.9196C60.8926 41.1098 62.2049 41.4239 63.4778 41.8577L63.2805 50.3206C63.2124 61.6311 52.4961 64.1793 52.4961 64.1793C46.7739 61.6045 44.3313 57.9452 43.3039 55.0311" stroke="#F68A3F" stroke-width="2" stroke-miterlimit="10"/>
<path d="M37.5409 32.6563L44.3313 24.2599" stroke="#F68A3F" stroke-width="2" stroke-miterlimit="10" stroke-linecap="round"/>
<path d="M37.6769 32.8492L43.0657 36.9543" stroke="#F68A3F" stroke-width="2" stroke-miterlimit="10" stroke-linecap="round"/>
<path d="M53.0268 55.5434L55.1565 57.9784L59.5927 52.942" stroke="#F68A3F" stroke-width="2" stroke-miterlimit="10" stroke-linecap="round"/>
<path d="M44.9096 57.8054C44.9096 57.8054 53.6936 46.6081 63.1716 44.9182" stroke="#F68A3F" stroke-width="2" stroke-miterlimit="10"/>
<path d="M42.7596 52.8755C42.7596 52.8755 49.8221 42.563 59.2729 40.8664" stroke="#F68A3F" stroke-width="2" stroke-miterlimit="10"/>
<path d="M37.7654 15.1051V18.2321" stroke="#F68A3F" stroke-width="2" stroke-miterlimit="10"/>
<path d="M55.4762 32.7628H52.2852" stroke="#F68A3F" stroke-width="2" stroke-miterlimit="10"/>
<path d="M23.0279 32.6497H19.8232" stroke="#F68A3F" stroke-width="2" stroke-miterlimit="10"/>
<path d="M37.7654 46.5216V49.642" stroke="#F68A3F" stroke-width="2" stroke-miterlimit="10"/>
</g>
<defs>
<filter id="filter0_d" x="0.930908" y="0.510986" width="75.5637" height="80.7199" filterUnits="userSpaceOnUse" color-interpolation-filters="sRGB">
<feFlood flood-opacity="0" result="BackgroundImageFix"/>
<feColorMatrix in="SourceAlpha" type="matrix" values="0 0 0 0 0 0 0 0 0 0 0 0 0 0 0 0 0 0 127 0"/>
<feOffset dy="4"/>
<feGaussianBlur stdDeviation="6"/>
<feColorMatrix type="matrix" values="0 0 0 0 0 0 0 0 0 0 0 0 0 0 0 0 0 0 0.25 0"/>
<feBlend mode="normal" in2="BackgroundImageFix" result="effect1_dropShadow"/>
<feBlend mode="normal" in="SourceGraphic" in2="effect1_dropShadow" result="shape"/>
</filter>
</defs>
</svg>
