<svg width="117" height="89" viewBox="0 0 117 89" fill="none" xmlns="http://www.w3.org/2000/svg">
<g filter="url(#filter0_d)">
<rect x="31.7012" y="20.2988" width="72.2989" height="51.4023" rx="4" stroke="#F68A3F" stroke-width="2"/>
<rect x="38.1667" y="34.8908" width="31.5058" height="19.8966" rx="2.5" stroke="#F68A3F"/>
<rect x="76.477" y="34.8908" width="22.2184" height="19.8966" rx="2.5" stroke="#F68A3F"/>
<path d="M31.8621 30.9081H103.839" stroke="#F68A3F" stroke-width="2"/>
<circle cx="37.0862" cy="25.6839" r="1.74138" fill="#F68A3F"/>
<circle cx="42.8908" cy="25.6839" r="1.74138" fill="#F68A3F"/>
<circle cx="48.6954" cy="25.6839" r="1.74138" fill="#F68A3F"/>
<path d="M67.8351 58.7856L72.5832 60.4482L69.972 60.9225L69.4977 63.5337L67.8351 58.7856Z" fill="#F68A3F"/>
<path d="M78.8793 39.6149H95.1322M78.8793 41.9368H92.2299M78.8793 44.2586H91.6495" stroke="#F68A3F" stroke-linecap="round"/>
</g>
<path fill-rule="evenodd" clip-rule="evenodd" d="M32.2154 30.908H9C6.23858 30.908 4 33.1466 4 35.908V65.3793C4 68.1407 6.23858 70.3793 9 70.3793H32.2154V68.3793H9C7.34315 68.3793 6 67.0362 6 65.3793V40.4887H32.2154V38.4887H6V35.908C6 34.2512 7.34314 32.908 9 32.908H32.2154V30.908ZM8.71941 36.9145C9.43026 36.9145 10.0065 36.3383 10.0065 35.6274C10.0065 34.9166 9.43026 34.3403 8.71941 34.3403C8.00856 34.3403 7.4323 34.9166 7.4323 35.6274C7.4323 36.3383 8.00856 36.9145 8.71941 36.9145ZM14.2969 35.6274C14.2969 36.3383 13.7206 36.9145 13.0098 36.9145C12.299 36.9145 11.7227 36.3383 11.7227 35.6274C11.7227 34.9166 12.299 34.3403 13.0098 34.3403C13.7206 34.3403 14.2969 34.9166 14.2969 35.6274ZM17.3 36.9145C18.0109 36.9145 18.5872 36.3383 18.5872 35.6274C18.5872 34.9166 18.0109 34.3403 17.3 34.3403C16.5892 34.3403 16.0129 34.9166 16.0129 35.6274C16.0129 36.3383 16.5892 36.9145 17.3 36.9145Z" fill="#F68A3F"/>
<path fill-rule="evenodd" clip-rule="evenodd" d="M31.8621 42.5173H10.6437C9.53911 42.5173 8.64368 43.4127 8.64368 44.5173V57.9311C8.64368 59.0356 9.53911 59.9311 10.6437 59.9311H31.8621V58.9311H10.6437C10.0914 58.9311 9.64368 58.4834 9.64368 57.9311V44.5173C9.64368 43.965 10.0914 43.5173 10.6437 43.5173H31.8621V42.5173Z" fill="#F68A3F"/>
<g filter="url(#filter1_d)">
<path d="M18.5 11L20.2556 15.7444L25 17.5L20.2556 19.2556L18.5 24L16.7444 19.2556L12 17.5L16.7444 15.7444L18.5 11Z" fill="#F68A3F"/>
</g>
<g filter="url(#filter2_d)">
<path d="M28.5 8L29.4453 10.1897L32 11L29.4453 11.8103L28.5 14L27.5547 11.8103L25 11L27.5547 10.1897L28.5 8Z" fill="#F68A3F"/>
</g>
<defs>
<filter id="filter0_d" x="18.7012" y="11.2988" width="98.2989" height="77.4023" filterUnits="userSpaceOnUse" color-interpolation-filters="sRGB">
<feFlood flood-opacity="0" result="BackgroundImageFix"/>
<feColorMatrix in="SourceAlpha" type="matrix" values="0 0 0 0 0 0 0 0 0 0 0 0 0 0 0 0 0 0 127 0"/>
<feOffset dy="4"/>
<feGaussianBlur stdDeviation="6"/>
<feColorMatrix type="matrix" values="0 0 0 0 0 0 0 0 0 0 0 0 0 0 0 0 0 0 0.25 0"/>
<feBlend mode="normal" in2="BackgroundImageFix" result="effect1_dropShadow"/>
<feBlend mode="normal" in="SourceGraphic" in2="effect1_dropShadow" result="shape"/>
</filter>
<filter id="filter1_d" x="0" y="3" width="37" height="37" filterUnits="userSpaceOnUse" color-interpolation-filters="sRGB">
<feFlood flood-opacity="0" result="BackgroundImageFix"/>
<feColorMatrix in="SourceAlpha" type="matrix" values="0 0 0 0 0 0 0 0 0 0 0 0 0 0 0 0 0 0 127 0"/>
<feOffset dy="4"/>
<feGaussianBlur stdDeviation="6"/>
<feColorMatrix type="matrix" values="0 0 0 0 0 0 0 0 0 0 0 0 0 0 0 0 0 0 0.25 0"/>
<feBlend mode="normal" in2="BackgroundImageFix" result="effect1_dropShadow"/>
<feBlend mode="normal" in="SourceGraphic" in2="effect1_dropShadow" result="shape"/>
</filter>
<filter id="filter2_d" x="13" y="0" width="31" height="30" filterUnits="userSpaceOnUse" color-interpolation-filters="sRGB">
<feFlood flood-opacity="0" result="BackgroundImageFix"/>
<feColorMatrix in="SourceAlpha" type="matrix" values="0 0 0 0 0 0 0 0 0 0 0 0 0 0 0 0 0 0 127 0"/>
<feOffset dy="4"/>
<feGaussianBlur stdDeviation="6"/>
<feColorMatrix type="matrix" values="0 0 0 0 0 0 0 0 0 0 0 0 0 0 0 0 0 0 0.25 0"/>
<feBlend mode="normal" in2="BackgroundImageFix" result="effect1_dropShadow"/>
<feBlend mode="normal" in="SourceGraphic" in2="effect1_dropShadow" result="shape"/>
</filter>
</defs>
</svg>
