<svg width="636" height="525" viewBox="0 0 636 525" fill="none" xmlns="http://www.w3.org/2000/svg">
<g filter="url(#filter0_d)">
<g filter="url(#filter1_i)">
<path d="M262.217 311.247H327.312L337.868 405.732H254.593L262.217 311.247Z" fill="#656565"/>
</g>
<g filter="url(#filter2_ii)">
<path d="M48.6809 54.4408C49.088 40.933 60.1557 30.1938 73.6696 30.1938H523.338C536.87 30.1938 547.946 40.961 548.328 54.4878L555.739 316.769C556.137 330.847 544.833 342.475 530.749 342.475H65.7648C51.6626 342.475 40.3513 330.818 40.7762 316.722L48.6809 54.4408Z" fill="url(#paint0_radial)"/>
</g>
<g filter="url(#filter3_ii)">
<path d="M60.8115 60.847C61.2183 47.3391 72.2861 36.5996 85.8002 36.5996H511.165C524.697 36.5996 535.773 47.3671 536.155 60.894L542.928 300.755C543.325 314.833 532.021 326.461 517.938 326.461H78.5759C64.4739 326.461 53.1626 314.804 53.5872 300.708L60.8115 60.847Z" fill="#131313"/>
</g>
<rect x="160.909" y="396.124" width="274.647" height="38.4346" rx="19.2173" fill="url(#paint1_radial)"/>
</g>
<path d="M507.433 57.8018L512.089 62.4582" stroke="#C1C1C1" stroke-width="2" stroke-linecap="round"/>
<path d="M512.089 57.8018L507.433 62.4582" stroke="#C1C1C1" stroke-width="2" stroke-linecap="round"/>
<g filter="url(#filter4_di)">
<path d="M408.505 253.91C408.642 254.077 408.827 254.197 409.036 254.254C409.244 254.311 409.465 254.301 409.667 254.226L421.516 249.869C426.25 253.519 431.549 256.373 437.202 258.318L440.091 270.598C440.14 270.808 440.254 270.998 440.417 271.14C440.579 271.282 440.782 271.37 440.997 271.391L456.062 272.919C456.276 272.94 456.493 272.894 456.68 272.787C456.868 272.68 457.017 272.518 457.108 272.322L462.402 260.87C468.331 260.099 474.094 258.366 479.464 255.739L490.198 262.384C490.382 262.498 490.596 262.551 490.811 262.537C491.026 262.523 491.232 262.442 491.399 262.306L503.132 252.733C503.299 252.596 503.419 252.411 503.476 252.203C503.533 251.994 503.524 251.774 503.45 251.571L499.092 239.723C502.742 234.988 505.595 229.69 507.54 224.036L519.82 221.146C520.031 221.097 520.22 220.983 520.363 220.821C520.505 220.658 520.594 220.455 520.615 220.24L522.141 205.176C522.163 204.961 522.118 204.745 522.011 204.557C521.904 204.37 521.741 204.22 521.545 204.13L510.092 198.836C509.322 192.907 507.59 187.145 504.963 181.775L511.608 171.04C511.722 170.856 511.775 170.642 511.761 170.426C511.746 170.211 511.665 170.006 511.528 169.839L501.955 158.106C501.818 157.939 501.633 157.819 501.425 157.762C501.217 157.705 500.996 157.714 500.793 157.788L488.945 162.146C484.21 158.496 478.911 155.643 473.258 153.698L470.369 141.418C470.319 141.208 470.205 141.019 470.043 140.876C469.881 140.734 469.678 140.645 469.464 140.623L454.399 139.097C454.184 139.076 453.968 139.122 453.78 139.229C453.593 139.336 453.443 139.499 453.353 139.695L448.058 151.146C442.13 151.917 436.367 153.649 430.996 156.275L420.262 149.632C420.079 149.518 419.864 149.464 419.649 149.478C419.434 149.492 419.228 149.573 419.061 149.71L407.329 159.283C407.161 159.42 407.041 159.605 406.984 159.813C406.927 160.021 406.936 160.242 407.01 160.445L411.368 172.293C407.718 177.028 404.865 182.326 402.921 187.98L390.64 190.87C390.43 190.919 390.24 191.033 390.098 191.195C389.955 191.357 389.867 191.559 389.845 191.774L388.319 206.84C388.298 207.055 388.343 207.271 388.45 207.458C388.557 207.646 388.719 207.795 388.915 207.886L400.367 213.179C401.139 219.107 402.872 224.87 405.498 230.241L398.854 240.975C398.74 241.158 398.686 241.373 398.7 241.589C398.714 241.804 398.795 242.01 398.932 242.177L408.505 253.91Z" fill="url(#paint2_linear)"/>
</g>
<g filter="url(#filter5_i)">
<circle cx="454.935" cy="205.713" r="35.0275" fill="#C4C4C4"/>
</g>
<g filter="url(#filter6_ii)">
<circle cx="454.935" cy="205.713" r="16.4836" fill="#C4C4C4"/>
</g>
<g filter="url(#filter7_di)">
<path d="M324.811 138.151C324.828 138.275 324.884 138.391 324.97 138.482C325.056 138.573 325.169 138.635 325.292 138.659L332.492 140.072C333.741 143.314 335.511 146.331 337.731 149.004L335.458 155.975C335.419 156.094 335.419 156.222 335.456 156.342C335.494 156.462 335.568 156.567 335.669 156.642L342.689 161.949C342.789 162.024 342.911 162.067 343.036 162.07C343.161 162.074 343.285 162.038 343.389 161.968L349.475 157.879C352.653 159.286 356.038 160.165 359.498 160.482L362.822 167.023C362.879 167.135 362.97 167.226 363.081 167.284C363.192 167.342 363.318 167.364 363.443 167.347L372.159 166.135C372.284 166.117 372.399 166.061 372.49 165.975C372.582 165.889 372.644 165.777 372.668 165.654L374.081 158.454C377.323 157.204 380.34 155.434 383.012 153.214L389.983 155.486C390.103 155.525 390.231 155.526 390.351 155.488C390.471 155.451 390.576 155.377 390.652 155.276L395.957 148.255C396.033 148.156 396.076 148.034 396.08 147.909C396.083 147.784 396.047 147.66 395.977 147.556L391.888 141.469C393.295 138.293 394.174 134.908 394.491 131.448L401.032 128.123C401.144 128.066 401.235 127.976 401.293 127.864C401.351 127.753 401.373 127.626 401.355 127.502L400.143 118.786C400.125 118.661 400.07 118.546 399.984 118.454C399.897 118.363 399.785 118.301 399.662 118.277L392.462 116.864C391.213 113.622 389.443 110.605 387.222 107.933L389.495 100.962C389.534 100.843 389.534 100.714 389.497 100.594C389.459 100.475 389.385 100.37 389.285 100.294L382.264 94.9879C382.164 94.9123 382.043 94.8698 381.917 94.8663C381.792 94.8629 381.669 94.8987 381.564 94.9687L375.478 99.0574C372.301 97.6503 368.916 96.7708 365.456 96.4535L362.131 89.9136C362.074 89.8017 361.984 89.7103 361.873 89.6523C361.762 89.5942 361.635 89.5724 361.511 89.5899L352.794 90.8021C352.67 90.8195 352.554 90.8751 352.463 90.9613C352.372 91.0475 352.31 91.16 352.285 91.2831L350.872 98.4826C347.63 99.7321 344.614 101.502 341.941 103.723L334.97 101.45C334.851 101.411 334.722 101.411 334.603 101.448C334.483 101.486 334.378 101.559 334.302 101.659L328.996 108.681C328.92 108.781 328.878 108.902 328.874 109.028C328.871 109.153 328.906 109.276 328.976 109.38L333.065 115.466C331.659 118.643 330.78 122.029 330.462 125.489L323.922 128.813C323.81 128.87 323.719 128.96 323.661 129.072C323.603 129.183 323.581 129.31 323.598 129.434L324.811 138.151Z" fill="url(#paint3_linear)"/>
</g>
<g filter="url(#filter8_i)">
<circle cx="362.419" cy="128.233" r="20.3576" transform="rotate(31.2958 362.419 128.233)" fill="#C4C4C4"/>
</g>
<g filter="url(#filter9_ii)">
<circle cx="362.419" cy="128.233" r="9.58004" transform="rotate(31.2958 362.419 128.233)" fill="#C4C4C4"/>
</g>
<path d="M275.813 230.77C275.946 230.58 276.075 230.39 276.212 230.211C282.799 221.317 290.898 220.805 297.046 225.359C303.195 229.914 305.069 237.808 298.481 246.704L298.306 246.932C294.415 242.606 286.722 235.332 275.813 230.77Z" fill="url(#paint4_linear)"/>
<path d="M298.305 246.935C291.673 255.712 279.28 262.089 273.192 257.574C267.169 253.115 269.524 239.68 275.812 230.772C286.721 235.334 294.415 242.608 298.305 246.935Z" fill="url(#paint5_linear)"/>
<path d="M289.72 228.083C292.868 224.391 295.714 220.452 298.228 216.303C299.454 214.21 300.6 212.043 301.441 209.724C301.876 208.554 302.191 207.343 302.38 206.109C302.598 204.822 302.506 203.502 302.11 202.258C301.657 200.97 300.75 199.892 299.559 199.225C298.398 198.546 297.151 198.23 295.875 198.067C294.6 197.903 293.172 198.008 291.939 198.752C290.706 199.496 289.948 200.808 289.617 202.083C289.306 203.359 289.262 204.685 289.487 205.978C289.7 207.253 290.072 208.51 290.844 209.669C291.246 210.228 291.732 210.835 292.603 211.142C293.056 211.289 293.544 211.289 293.997 211.142C294.398 210.997 294.765 210.771 295.076 210.479C296.119 209.38 296.549 208.158 296.98 206.967C297.047 206.755 297.029 206.524 296.931 206.324C296.832 206.124 296.66 205.97 296.45 205.894C296.24 205.818 296.009 205.826 295.805 205.917C295.601 206.007 295.44 206.173 295.356 206.379V206.404L295.343 206.442C294.996 207.515 294.549 208.617 293.924 209.286C293.589 209.585 293.367 209.667 293.106 209.591C292.845 209.515 292.451 209.17 292.166 208.761C291.575 207.92 291.204 206.821 291.01 205.729C290.8 204.643 290.814 203.526 291.054 202.447C291.309 201.412 291.827 200.46 292.689 199.956C293.551 199.452 294.632 199.29 295.735 199.412C297.975 199.621 300.252 200.612 300.96 202.675C301.312 203.734 301.405 204.862 301.23 205.965C301.072 207.12 300.796 208.257 300.408 209.357C299.646 211.589 298.558 213.733 297.389 215.813C294.972 219.959 292.224 223.904 289.171 227.609C289.116 227.684 289.092 227.777 289.103 227.869C289.114 227.961 289.161 228.046 289.232 228.105C289.304 228.164 289.395 228.193 289.488 228.187C289.581 228.181 289.668 228.139 289.731 228.071L289.72 228.083Z" fill="url(#paint6_linear)"/>
<path d="M296.549 233.073C299.202 229.074 302.173 225.296 305.435 221.776C307.086 220.05 308.817 218.389 310.729 217.006C311.668 216.314 312.675 215.719 313.735 215.231C314.737 214.741 315.844 214.501 316.959 214.531C319.137 214.605 320.75 216.491 321.603 218.574C322.04 219.594 322.234 220.688 321.972 221.646C321.74 222.617 320.981 223.389 320.069 223.93C319.107 224.474 318.042 224.814 316.942 224.928C315.842 225.061 314.682 225.027 313.708 224.708C313.234 224.554 312.797 224.304 312.639 224.051C312.481 223.798 312.506 223.587 312.694 223.18C313.153 222.388 314.075 221.639 315 220.994L315.03 220.973C315.207 220.838 315.325 220.64 315.359 220.42C315.393 220.2 315.341 219.975 315.214 219.793C315.087 219.61 314.894 219.484 314.676 219.44C314.457 219.396 314.231 219.438 314.043 219.558L314.018 219.575C313.006 220.336 311.962 221.097 311.214 222.428C311.027 222.81 310.918 223.227 310.896 223.652C310.886 224.127 311.027 224.593 311.298 224.984C311.846 225.727 312.567 226.015 313.221 226.235C314.553 226.637 315.863 226.625 317.146 226.456C318.448 226.294 319.703 225.865 320.832 225.197C321.955 224.51 323.02 223.418 323.341 222.004C323.693 220.61 323.372 219.209 322.851 218.041C322.329 216.873 321.65 215.773 320.669 214.862C319.685 213.917 318.389 213.365 317.026 213.31C315.72 213.291 314.43 213.587 313.263 214.173C312.14 214.714 311.076 215.367 310.086 216.123C308.113 217.604 306.379 219.331 304.729 221.114C301.492 224.727 298.552 228.596 295.939 232.683C295.886 232.763 295.867 232.861 295.887 232.955C295.906 233.049 295.962 233.132 296.042 233.184C296.123 233.237 296.22 233.256 296.314 233.236C296.408 233.217 296.491 233.161 296.544 233.081L296.549 233.073Z" fill="url(#paint7_linear)"/>
<path d="M289.88 236.574C289.88 236.574 278.818 271.677 292.475 276.423C306.133 281.168 309.105 260.363 289.88 236.574Z" fill="#BDD0FB"/>
<path d="M289.877 236.575C289.877 236.575 259.528 257.39 251.004 245.707C242.481 234.024 261.518 225.135 289.877 236.575Z" fill="#BDD0FB"/>
<path d="M287.482 237.447C287.482 237.447 251.111 243.08 248.477 228.866C245.844 214.652 266.867 214.863 287.482 237.447Z" fill="#91B3FA"/>
<path d="M290.669 239.81C290.669 239.81 295.889 276.244 310.252 274.613C324.615 272.983 318.293 252.94 290.669 239.81Z" fill="#91B3FA"/>
<path opacity="0.78" d="M292.725 274.132C292.827 274.207 292.945 274.259 293.069 274.284C296.266 274.923 298.625 274.341 300.085 272.556C304.375 267.31 298.587 253.293 298.338 252.699C298.25 252.489 298.081 252.321 297.87 252.235C297.659 252.148 297.421 252.149 297.211 252.237C297 252.325 296.833 252.494 296.746 252.705C296.659 252.917 296.66 253.155 296.749 253.365C298.329 257.148 301.77 267.772 298.751 271.464C297.728 272.716 295.929 273.096 293.408 272.592C293.215 272.553 293.015 272.58 292.84 272.67C292.666 272.76 292.527 272.907 292.447 273.087C292.368 273.267 292.352 273.468 292.402 273.658C292.453 273.848 292.567 274.015 292.725 274.132Z" fill="white"/>
<path d="M288.934 237.858C288.934 237.858 280.619 216.911 274.239 212.188C267.362 207.098 255.135 208.168 249.048 209.113C248.789 209.154 248.549 209.276 248.364 209.462C248.178 209.648 248.056 209.887 248.015 210.147C247.974 210.406 248.016 210.671 248.136 210.905C248.255 211.139 248.445 211.329 248.679 211.448C260.901 217.816 274.631 227.254 288.934 237.858Z" fill="url(#paint8_linear)"/>
<path d="M287.82 237.033C287.82 237.033 310.281 238.877 316.658 243.602C323.524 248.695 326.074 260.704 326.949 266.806C326.985 267.065 326.938 267.33 326.814 267.561C326.691 267.793 326.497 267.979 326.261 268.094C326.025 268.209 325.759 268.246 325.501 268.2C325.243 268.154 325.006 268.028 324.824 267.839C315.165 258.002 302.135 247.622 287.82 237.033Z" fill="url(#paint9_linear)"/>
<g opacity="0.9">
<path d="M143.437 368.905L230.936 288.309L240.446 297.826L162.574 387.831L143.437 368.905Z" fill="#C4C4C4"/>
<g style="mix-blend-mode:screen" filter="url(#filter10_b)">
<circle cx="287.35" cy="240.452" r="65.2245" transform="rotate(3.03337 287.35 240.452)" fill="white" fill-opacity="0.25"/>
<circle cx="287.35" cy="240.452" r="69.7245" transform="rotate(3.03337 287.35 240.452)" stroke="url(#paint10_diamond)" stroke-width="9"/>
</g>
<path d="M169.654 376.179C168.138 384.057 162.665 389.805 154.957 389.396C147.249 388.988 141.331 382.408 141.74 374.7C142.148 366.991 145.531 365.295 156.436 361.482C164.145 361.891 170.062 368.471 169.654 376.179Z" fill="#C4C4C4"/>
</g>
<rect x="88" y="75" width="148" height="10" fill="#4E4E4E"/>
<rect x="88" y="95" width="148" height="10" fill="#4E4E4E"/>
<rect x="87" y="137" width="148" height="10" fill="#4E4E4E"/>
<rect x="88" y="115" width="107" height="10" fill="#4E4E4E"/>
<rect x="87" y="158" width="107" height="10" fill="#4E4E4E"/>
<rect x="88" y="180" width="60" height="10" fill="#4E4E4E"/>
<rect x="88" y="208" width="100" height="83" rx="12" fill="#4E4E4E"/>
<defs>
<filter id="filter0_d" x="0.764572" y="0.193848" width="634.985" height="524.364" filterUnits="userSpaceOnUse" color-interpolation-filters="sRGB">
<feFlood flood-opacity="0" result="BackgroundImageFix"/>
<feColorMatrix in="SourceAlpha" type="matrix" values="0 0 0 0 0 0 0 0 0 0 0 0 0 0 0 0 0 0 127 0"/>
<feOffset dx="20" dy="30"/>
<feGaussianBlur stdDeviation="30"/>
<feColorMatrix type="matrix" values="0 0 0 0 0.104167 0 0 0 0 0.104167 0 0 0 0 0.104167 0 0 0 0.35 0"/>
<feBlend mode="normal" in2="BackgroundImageFix" result="effect1_dropShadow"/>
<feBlend mode="normal" in="SourceGraphic" in2="effect1_dropShadow" result="shape"/>
</filter>
<filter id="filter1_i" x="254.593" y="311.247" width="83.275" height="104.485" filterUnits="userSpaceOnUse" color-interpolation-filters="sRGB">
<feFlood flood-opacity="0" result="BackgroundImageFix"/>
<feBlend mode="normal" in="SourceGraphic" in2="BackgroundImageFix" result="shape"/>
<feColorMatrix in="SourceAlpha" type="matrix" values="0 0 0 0 0 0 0 0 0 0 0 0 0 0 0 0 0 0 127 0" result="hardAlpha"/>
<feOffset dy="22"/>
<feGaussianBlur stdDeviation="5"/>
<feComposite in2="hardAlpha" operator="arithmetic" k2="-1" k3="1"/>
<feColorMatrix type="matrix" values="0 0 0 0 0 0 0 0 0 0 0 0 0 0 0 0 0 0 0.25 0"/>
<feBlend mode="normal" in2="shape" result="effect1_innerShadow"/>
</filter>
<filter id="filter2_ii" x="40.7646" y="22.1938" width="514.985" height="323.281" filterUnits="userSpaceOnUse" color-interpolation-filters="sRGB">
<feFlood flood-opacity="0" result="BackgroundImageFix"/>
<feBlend mode="normal" in="SourceGraphic" in2="BackgroundImageFix" result="shape"/>
<feColorMatrix in="SourceAlpha" type="matrix" values="0 0 0 0 0 0 0 0 0 0 0 0 0 0 0 0 0 0 127 0" result="hardAlpha"/>
<feOffset dy="-8"/>
<feGaussianBlur stdDeviation="6.5"/>
<feComposite in2="hardAlpha" operator="arithmetic" k2="-1" k3="1"/>
<feColorMatrix type="matrix" values="0 0 0 0 0 0 0 0 0 0 0 0 0 0 0 0 0 0 0.25 0"/>
<feBlend mode="normal" in2="shape" result="effect1_innerShadow"/>
<feColorMatrix in="SourceAlpha" type="matrix" values="0 0 0 0 0 0 0 0 0 0 0 0 0 0 0 0 0 0 127 0" result="hardAlpha"/>
<feOffset dy="3"/>
<feGaussianBlur stdDeviation="7.5"/>
<feComposite in2="hardAlpha" operator="arithmetic" k2="-1" k3="1"/>
<feColorMatrix type="matrix" values="0 0 0 0 0 0 0 0 0 0 0 0 0 0 0 0 0 0 0.25 0"/>
<feBlend mode="normal" in2="effect1_innerShadow" result="effect2_innerShadow"/>
</filter>
<filter id="filter3_ii" x="53.5756" y="28.5996" width="489.362" height="300.861" filterUnits="userSpaceOnUse" color-interpolation-filters="sRGB">
<feFlood flood-opacity="0" result="BackgroundImageFix"/>
<feBlend mode="normal" in="SourceGraphic" in2="BackgroundImageFix" result="shape"/>
<feColorMatrix in="SourceAlpha" type="matrix" values="0 0 0 0 0 0 0 0 0 0 0 0 0 0 0 0 0 0 127 0" result="hardAlpha"/>
<feOffset dy="-8"/>
<feGaussianBlur stdDeviation="6.5"/>
<feComposite in2="hardAlpha" operator="arithmetic" k2="-1" k3="1"/>
<feColorMatrix type="matrix" values="0 0 0 0 0 0 0 0 0 0 0 0 0 0 0 0 0 0 0.25 0"/>
<feBlend mode="normal" in2="shape" result="effect1_innerShadow"/>
<feColorMatrix in="SourceAlpha" type="matrix" values="0 0 0 0 0 0 0 0 0 0 0 0 0 0 0 0 0 0 127 0" result="hardAlpha"/>
<feOffset dy="3"/>
<feGaussianBlur stdDeviation="7.5"/>
<feComposite in2="hardAlpha" operator="arithmetic" k2="-1" k3="1"/>
<feColorMatrix type="matrix" values="0 0 0 0 0 0 0 0 0 0 0 0 0 0 0 0 0 0 0.25 0"/>
<feBlend mode="normal" in2="effect1_innerShadow" result="effect2_innerShadow"/>
</filter>
<filter id="filter4_di" x="370.314" y="122.092" width="175.833" height="175.832" filterUnits="userSpaceOnUse" color-interpolation-filters="sRGB">
<feFlood flood-opacity="0" result="BackgroundImageFix"/>
<feColorMatrix in="SourceAlpha" type="matrix" values="0 0 0 0 0 0 0 0 0 0 0 0 0 0 0 0 0 0 127 0"/>
<feOffset dx="3" dy="4"/>
<feGaussianBlur stdDeviation="10.5"/>
<feColorMatrix type="matrix" values="0 0 0 0 0 0 0 0 0 0 0 0 0 0 0 0 0 0 0.25 0"/>
<feBlend mode="normal" in2="BackgroundImageFix" result="effect1_dropShadow"/>
<feBlend mode="normal" in="SourceGraphic" in2="effect1_dropShadow" result="shape"/>
<feColorMatrix in="SourceAlpha" type="matrix" values="0 0 0 0 0 0 0 0 0 0 0 0 0 0 0 0 0 0 127 0" result="hardAlpha"/>
<feOffset dx="-4" dy="-8"/>
<feGaussianBlur stdDeviation="14"/>
<feComposite in2="hardAlpha" operator="arithmetic" k2="-1" k3="1"/>
<feColorMatrix type="matrix" values="0 0 0 0 0 0 0 0 0 0 0 0 0 0 0 0 0 0 0.25 0"/>
<feBlend mode="normal" in2="shape" result="effect2_innerShadow"/>
</filter>
<filter id="filter5_i" x="417.907" y="166.686" width="72.0551" height="74.0551" filterUnits="userSpaceOnUse" color-interpolation-filters="sRGB">
<feFlood flood-opacity="0" result="BackgroundImageFix"/>
<feBlend mode="normal" in="SourceGraphic" in2="BackgroundImageFix" result="shape"/>
<feColorMatrix in="SourceAlpha" type="matrix" values="0 0 0 0 0 0 0 0 0 0 0 0 0 0 0 0 0 0 127 0" result="hardAlpha"/>
<feOffset dx="-2" dy="-4"/>
<feGaussianBlur stdDeviation="2"/>
<feComposite in2="hardAlpha" operator="arithmetic" k2="-1" k3="1"/>
<feColorMatrix type="matrix" values="0 0 0 0 0 0 0 0 0 0 0 0 0 0 0 0 0 0 0.25 0"/>
<feBlend mode="normal" in2="shape" result="effect1_innerShadow"/>
</filter>
<filter id="filter6_ii" x="438.451" y="188.229" width="33.9671" height="34.9671" filterUnits="userSpaceOnUse" color-interpolation-filters="sRGB">
<feFlood flood-opacity="0" result="BackgroundImageFix"/>
<feBlend mode="normal" in="SourceGraphic" in2="BackgroundImageFix" result="shape"/>
<feColorMatrix in="SourceAlpha" type="matrix" values="0 0 0 0 0 0 0 0 0 0 0 0 0 0 0 0 0 0 127 0" result="hardAlpha"/>
<feOffset dx="1" dy="-1"/>
<feGaussianBlur stdDeviation="2"/>
<feComposite in2="hardAlpha" operator="arithmetic" k2="-1" k3="1"/>
<feColorMatrix type="matrix" values="0 0 0 0 0 0 0 0 0 0 0 0 0 0 0 0 0 0 0.25 0"/>
<feBlend mode="normal" in2="shape" result="effect1_innerShadow"/>
<feColorMatrix in="SourceAlpha" type="matrix" values="0 0 0 0 0 0 0 0 0 0 0 0 0 0 0 0 0 0 127 0" result="hardAlpha"/>
<feOffset dy="1"/>
<feGaussianBlur stdDeviation="1.5"/>
<feComposite in2="hardAlpha" operator="arithmetic" k2="-1" k3="1"/>
<feColorMatrix type="matrix" values="0 0 0 0 0 0 0 0 0 0 0 0 0 0 0 0 0 0 0.25 0"/>
<feBlend mode="normal" in2="effect1_innerShadow" result="effect2_innerShadow"/>
</filter>
<filter id="filter7_di" x="305.592" y="72.584" width="119.769" height="119.768" filterUnits="userSpaceOnUse" color-interpolation-filters="sRGB">
<feFlood flood-opacity="0" result="BackgroundImageFix"/>
<feColorMatrix in="SourceAlpha" type="matrix" values="0 0 0 0 0 0 0 0 0 0 0 0 0 0 0 0 0 0 127 0"/>
<feOffset dx="3" dy="4"/>
<feGaussianBlur stdDeviation="10.5"/>
<feColorMatrix type="matrix" values="0 0 0 0 0 0 0 0 0 0 0 0 0 0 0 0 0 0 0.25 0"/>
<feBlend mode="normal" in2="BackgroundImageFix" result="effect1_dropShadow"/>
<feBlend mode="normal" in="SourceGraphic" in2="effect1_dropShadow" result="shape"/>
<feColorMatrix in="SourceAlpha" type="matrix" values="0 0 0 0 0 0 0 0 0 0 0 0 0 0 0 0 0 0 127 0" result="hardAlpha"/>
<feOffset dx="-4" dy="-8"/>
<feGaussianBlur stdDeviation="14"/>
<feComposite in2="hardAlpha" operator="arithmetic" k2="-1" k3="1"/>
<feColorMatrix type="matrix" values="0 0 0 0 0 0 0 0 0 0 0 0 0 0 0 0 0 0 0.25 0"/>
<feBlend mode="normal" in2="shape" result="effect2_innerShadow"/>
</filter>
<filter id="filter8_i" x="340.059" y="103.873" width="42.7211" height="44.7211" filterUnits="userSpaceOnUse" color-interpolation-filters="sRGB">
<feFlood flood-opacity="0" result="BackgroundImageFix"/>
<feBlend mode="normal" in="SourceGraphic" in2="BackgroundImageFix" result="shape"/>
<feColorMatrix in="SourceAlpha" type="matrix" values="0 0 0 0 0 0 0 0 0 0 0 0 0 0 0 0 0 0 127 0" result="hardAlpha"/>
<feOffset dx="-2" dy="-4"/>
<feGaussianBlur stdDeviation="2"/>
<feComposite in2="hardAlpha" operator="arithmetic" k2="-1" k3="1"/>
<feColorMatrix type="matrix" values="0 0 0 0 0 0 0 0 0 0 0 0 0 0 0 0 0 0 0.25 0"/>
<feBlend mode="normal" in2="shape" result="effect1_innerShadow"/>
</filter>
<filter id="filter9_ii" x="352.838" y="117.651" width="20.1629" height="21.1629" filterUnits="userSpaceOnUse" color-interpolation-filters="sRGB">
<feFlood flood-opacity="0" result="BackgroundImageFix"/>
<feBlend mode="normal" in="SourceGraphic" in2="BackgroundImageFix" result="shape"/>
<feColorMatrix in="SourceAlpha" type="matrix" values="0 0 0 0 0 0 0 0 0 0 0 0 0 0 0 0 0 0 127 0" result="hardAlpha"/>
<feOffset dx="1" dy="-1"/>
<feGaussianBlur stdDeviation="2"/>
<feComposite in2="hardAlpha" operator="arithmetic" k2="-1" k3="1"/>
<feColorMatrix type="matrix" values="0 0 0 0 0 0 0 0 0 0 0 0 0 0 0 0 0 0 0.25 0"/>
<feBlend mode="normal" in2="shape" result="effect1_innerShadow"/>
<feColorMatrix in="SourceAlpha" type="matrix" values="0 0 0 0 0 0 0 0 0 0 0 0 0 0 0 0 0 0 127 0" result="hardAlpha"/>
<feOffset dy="1"/>
<feGaussianBlur stdDeviation="1.5"/>
<feComposite in2="hardAlpha" operator="arithmetic" k2="-1" k3="1"/>
<feColorMatrix type="matrix" values="0 0 0 0 0 0 0 0 0 0 0 0 0 0 0 0 0 0 0.25 0"/>
<feBlend mode="normal" in2="effect1_innerShadow" result="effect2_innerShadow"/>
</filter>
<filter id="filter10_b" x="203.124" y="156.226" width="168.453" height="168.453" filterUnits="userSpaceOnUse" color-interpolation-filters="sRGB">
<feFlood flood-opacity="0" result="BackgroundImageFix"/>
<feGaussianBlur in="BackgroundImage" stdDeviation="5"/>
<feComposite in2="SourceAlpha" operator="in" result="effect1_backgroundBlur"/>
<feBlend mode="normal" in="SourceGraphic" in2="effect1_backgroundBlur" result="shape"/>
</filter>
<radialGradient id="paint0_radial" cx="0" cy="0" r="1" gradientUnits="userSpaceOnUse" gradientTransform="translate(304.115 186.335) scale(248.233 403.23)">
<stop stop-color="#6F6F6F"/>
<stop offset="1" stop-color="#444444"/>
</radialGradient>
<radialGradient id="paint1_radial" cx="0" cy="0" r="1" gradientUnits="userSpaceOnUse" gradientTransform="translate(298.233 415.341) rotate(90.9505) scale(35.5278 229.558)">
<stop stop-color="#6B6B6B"/>
<stop offset="0.972431" stop-color="#343434"/>
</radialGradient>
<linearGradient id="paint2_linear" x1="421.624" y1="156.606" x2="496.487" y2="255.507" gradientUnits="userSpaceOnUse">
<stop stop-color="#EFEFEF"/>
<stop offset="1" stop-color="#878787"/>
</linearGradient>
<linearGradient id="paint3_linear" x1="360.702" y1="93.7884" x2="368.022" y2="165.506" gradientUnits="userSpaceOnUse">
<stop stop-color="#EFEFEF"/>
<stop offset="1" stop-color="#878787"/>
</linearGradient>
<linearGradient id="paint4_linear" x1="318.305" y1="196.522" x2="279.196" y2="249.383" gradientUnits="userSpaceOnUse">
<stop stop-color="#4F52FF"/>
<stop offset="1" stop-color="#4042E2"/>
</linearGradient>
<linearGradient id="paint5_linear" x1="-50488.1" y1="-58547.6" x2="-60261.6" y2="-49544.2" gradientUnits="userSpaceOnUse">
<stop stop-color="#09005D"/>
<stop offset="1" stop-color="#1A0F91"/>
</linearGradient>
<linearGradient id="paint6_linear" x1="28827.3" y1="-6500.72" x2="28672.9" y2="3930.72" gradientUnits="userSpaceOnUse">
<stop stop-color="#4F52FF"/>
<stop offset="1" stop-color="#4042E2"/>
</linearGradient>
<linearGradient id="paint7_linear" x1="55701.9" y1="-4226.4" x2="55669.2" y2="2663.45" gradientUnits="userSpaceOnUse">
<stop stop-color="#4F52FF"/>
<stop offset="1" stop-color="#4042E2"/>
</linearGradient>
<linearGradient id="paint8_linear" x1="-67503.1" y1="-50168.7" x2="-76026.4" y2="-56561.3" gradientUnits="userSpaceOnUse">
<stop stop-color="#09005D"/>
<stop offset="1" stop-color="#1A0F91"/>
</linearGradient>
<linearGradient id="paint9_linear" x1="-56679.7" y1="-42005.8" x2="-64830.7" y2="-48118.3" gradientUnits="userSpaceOnUse">
<stop stop-color="#09005D"/>
<stop offset="1" stop-color="#1A0F91"/>
</linearGradient>
<radialGradient id="paint10_diamond" cx="0" cy="0" r="1" gradientUnits="userSpaceOnUse" gradientTransform="translate(256.656 193.863) rotate(56.8578) scale(111.282 64.3268)">
<stop stop-color="#C4C4C4"/>
<stop offset="1" stop-color="#B0B0B0"/>
</radialGradient>
</defs>
</svg>
