<svg width="79" height="91" viewBox="0 0 79 91" fill="none" xmlns="http://www.w3.org/2000/svg">
<g filter="url(#filter0_d)">
<path d="M41.3141 19.846C36.8231 19.7974 32.1415 21.0593 28.392 23.5891C21.8878 27.9661 17.9179 37.5423 20.6489 45.2074C21.6335 48.0827 23.0132 50.8012 24.7468 53.2821C25.5738 54.3651 26.4587 55.4011 27.3973 56.3852C28.7911 57.9291 28.9966 59.3578 29.5624 61.2233C29.7037 61.7957 29.9762 62.3259 30.3576 62.7703C29.6905 63.4194 29.3361 64.3689 29.9198 65.3001C29.93 65.3138 29.9409 65.327 29.9525 65.3395C28.7256 66.9472 29.2825 67.9178 30.6256 68.5032C28.6064 71.4759 32.7103 72.1614 36.7218 72.2069C36.7558 72.8416 36.8906 73.4665 37.1209 74.0572C37.4931 74.8277 38.5176 74.8914 39.2562 74.8793C40.1169 74.8793 41.3409 74.7883 42.0824 74.3242C42.824 73.8601 42.9491 72.7802 43.0027 71.9218C44.9027 71.8369 48.2948 72.1159 49.7183 70.5871C50.4182 69.8379 50.2127 68.9886 49.6409 68.3607C50.719 67.7753 51.1032 66.8653 50.0787 65.4669C50.5492 64.751 50.3765 63.8289 49.4831 62.9493C49.6426 62.7652 49.7787 62.5614 49.8881 62.3426C50.4182 61.2597 50.1263 60.1617 50.3586 59.006C50.7517 57.0495 52.1127 55.7967 53.3159 54.3438C54.805 52.542 56.3744 50.722 57.2173 48.4956C60.0822 40.9123 59.4568 31.5758 53.5482 25.6123C50.2842 22.3181 45.9778 19.8915 41.3141 19.846ZM32.4363 63.5893C34.9439 63.8926 37.4812 64.2172 40.0097 64.1959C42.2433 64.1959 44.4768 64.02 46.7164 63.8926C47.2884 63.8793 47.857 63.7989 48.4109 63.653C50.0936 65.2515 45.3971 65.655 44.2416 65.6883C42.8299 65.7278 41.4183 65.6883 40.0067 65.6428C38.4759 65.5913 36.9422 65.5427 35.4114 65.4396C34.6967 65.3911 29.1574 64.5114 31.4893 63.4225C31.8003 63.5024 32.1169 63.5581 32.4363 63.5893ZM36.7516 53.2002C36.5967 50.2913 36.6652 47.2458 36.0249 44.4036C37.2274 44.0113 38.3701 43.4498 39.42 42.7353C40.4423 43.6238 41.638 44.2813 42.9282 44.6645C41.3439 50.2731 41.6506 56.9524 41.9812 62.561C41.2932 62.561 40.6232 62.5307 40.0097 62.5337C39.0805 62.5337 38.1573 62.4912 37.2341 62.4184L36.7516 53.2002ZM38.6814 39.8537C38.0858 38.8223 37.5795 37.0539 38.7172 36.1136C40.0811 34.9852 40.8822 36.329 41.0997 37.6302C41.323 38.974 40.6946 40.1813 39.6434 41.1489C39.2776 40.7561 38.9551 40.3238 38.6814 39.8597V39.8537ZM45.0576 68.1211C43.3481 68.1969 41.6357 68.1393 39.9233 68.1211C38.47 68.1211 37.0196 68.0938 35.5663 68.021C34.5478 67.9694 29.6428 68.1059 30.9294 66.1464C32.9217 67.1383 36.7248 66.7682 38.2823 66.8319C41.5285 66.9563 45.0874 67.3294 48.2829 66.5619C48.5751 66.49 48.8594 66.3884 49.1316 66.2586C50.0727 67.8936 45.7753 68.0725 45.0576 68.1211ZM41.1265 73.3869C40.5262 73.5721 39.9011 73.6601 39.2741 73.6477C38.7886 73.6477 38.4074 73.6993 38.199 73.308C38.0598 72.9603 37.9792 72.5911 37.9607 72.216C39.4498 72.1918 40.8465 72.0947 41.7846 72.0249C41.731 72.5648 41.6089 73.1806 41.1175 73.3717L41.1265 73.3869ZM45.4715 70.5325C44.0837 70.6448 42.684 70.7115 41.3022 70.7843C39.959 70.8571 38.6219 70.9269 37.2698 70.9511C36.8231 70.9511 30.3725 71.0148 31.7752 69.0492C31.8071 69.0055 31.8332 68.9575 31.8526 68.9067C34.6103 69.5619 38.7648 69.3556 39.9352 69.3677C40.8822 69.3677 45.4477 69.6286 48.3246 68.8794C50.1204 69.8895 46.0016 70.4749 45.4626 70.5174L45.4715 70.5325ZM56.3268 45.6746C55.7312 48.1012 54.7484 49.8696 53.2295 51.8079C51.9668 53.4186 50.305 54.8989 49.4116 56.7704C48.4169 58.8573 49.0304 61.5388 46.4067 62.2304C45.3585 62.4725 44.2858 62.5865 43.2111 62.5701C43.0131 59.276 43.0131 55.9726 43.2111 52.6785C43.372 50.2306 43.4702 47.4157 44.1224 44.892C44.4275 44.9341 44.7349 44.9554 45.0427 44.9557C47.5175 44.9253 51.7613 43.0022 50.4361 39.6322C50.0132 38.5524 48.67 38.334 47.6575 38.4674C45.5936 38.7435 44.3339 40.7879 43.6251 42.5836C43.5149 42.8627 43.4166 43.1509 43.3273 43.439C43.0124 43.3551 42.7047 43.2455 42.407 43.1114C41.7147 42.7925 41.0651 42.3848 40.4742 41.8981C42.7406 39.8446 43.6787 36.5595 40.7214 34.4544C38.5682 32.9195 36.5521 36.4745 36.8499 38.3977C37.0944 39.7297 37.7154 40.96 38.6367 41.9375C37.7382 42.5075 36.7603 42.936 35.7361 43.2085C34.932 40.6211 33.2374 37.4846 30.167 38.6161C28.2788 39.3107 28.3414 41.7768 29.4612 43.166C30.7656 44.804 32.7907 45.0831 34.8218 44.6827C35.337 47.1093 35.3459 49.6543 35.477 52.1325C35.6556 55.5177 35.8333 58.9028 36.01 62.288C35.6586 62.2546 35.3102 62.2182 34.9588 62.1788C34.2619 62.106 33.3893 62.1272 32.7073 61.9331C31.2838 61.5297 31.1527 60.647 30.8311 59.2517C29.9376 55.454 26.3937 53.1608 24.5204 49.815C22.6472 46.4693 21.3071 43.1418 21.5423 39.2773C21.8014 34.9761 23.2726 31.6637 25.8278 28.2452C31.2331 21.0107 42.7168 19.4486 49.8464 24.6052C53.7597 27.4747 55.6597 31.1723 56.8539 35.8649C57.7295 39.3046 57.1428 42.2682 56.3268 45.6746ZM44.4888 43.6635C44.6435 43.2244 44.8255 42.7959 45.0338 42.3804C45.7842 40.885 46.1118 40.4785 47.8064 40.3784C49.1168 40.3026 49.8345 40.2904 49.1138 41.6403C48.2233 43.2934 46.2875 43.8182 44.4888 43.6514V43.6635ZM34.4942 43.4663C33.6143 43.6132 32.7136 43.5614 31.8556 43.3147C30.8877 42.9901 29.4582 41.8314 29.9317 40.5847C31.0217 37.7182 33.839 41.5826 34.2261 42.6261C34.3363 42.89 34.4108 43.1721 34.4942 43.4542V43.4663Z" fill="#3FF6E0"/>
<path d="M66.0623 24.3779C64.0133 25.3212 61.9167 26.1979 60.0792 27.5416C59.4449 28.0057 60.0554 29.0886 60.6987 28.6184C62.5332 27.2747 64.6328 26.3981 66.6817 25.4547C67.3935 25.1241 66.777 24.0472 66.0623 24.3779Z" fill="#3FF6E0"/>
<path d="M51.8834 19.3152C53.2683 17.4952 54.3285 15.5236 55.4274 13.5246C55.8146 12.8239 54.7573 12.193 54.3702 12.8967C53.3278 14.7956 52.3331 16.7126 51.0168 18.4325C50.5373 19.0574 51.398 19.9492 51.8834 19.3152Z" fill="#3FF6E0"/>
<path d="M39.7625 15.5023C39.9173 13.3265 39.9858 11.1496 39.968 8.97168C39.968 8.16786 38.738 8.16483 38.741 8.97168C38.7529 11.1536 38.6854 13.3315 38.5385 15.5054C38.4819 16.3031 39.697 16.3001 39.7625 15.5023Z" fill="#3FF6E0"/>
<path d="M27.0221 19.3607C27.4598 20.025 28.5111 19.4001 28.0793 18.7328C26.7808 16.752 25.3215 14.7895 24.4906 12.5569C24.2137 11.8138 23.0284 12.1353 23.2994 12.8906C24.1839 15.2475 25.6551 17.2829 27.0221 19.3607Z" fill="#3FF6E0"/>
<path d="M18.7101 27.3596C16.8678 25.9832 14.8601 24.8527 12.736 23.9957C12.0034 23.6923 11.6847 24.9057 12.4084 25.209C14.4303 26.0347 16.3407 27.1193 18.0936 28.4364C18.728 28.9157 19.3415 27.8328 18.7101 27.3596Z" fill="#3FF6E0"/>
</g>
<defs>
<filter id="filter0_d" x="0" y="0.367676" width="78.9974" height="90.5128" filterUnits="userSpaceOnUse" color-interpolation-filters="sRGB">
<feFlood flood-opacity="0" result="BackgroundImageFix"/>
<feColorMatrix in="SourceAlpha" type="matrix" values="0 0 0 0 0 0 0 0 0 0 0 0 0 0 0 0 0 0 127 0"/>
<feOffset dy="4"/>
<feGaussianBlur stdDeviation="6"/>
<feColorMatrix type="matrix" values="0 0 0 0 0 0 0 0 0 0 0 0 0 0 0 0 0 0 0.25 0"/>
<feBlend mode="normal" in2="BackgroundImageFix" result="effect1_dropShadow"/>
<feBlend mode="normal" in="SourceGraphic" in2="effect1_dropShadow" result="shape"/>
</filter>
</defs>
</svg>
