<svg width="69" height="73" viewBox="0 0 69 73" fill="none" xmlns="http://www.w3.org/2000/svg">
<g filter="url(#filter0_d)">
<path d="M14.776 13.2142C14.776 13.2142 27.8389 7.03753 54.2735 13.2142C54.2735 13.2142 57.0107 34.8942 51.8449 42.8059C46.6792 50.7176 36.0448 55.1199 36.0448 55.1199C36.0448 55.1199 18.0897 50.42 15.6845 34.9054C13.2792 19.3908 14.776 13.2142 14.776 13.2142Z" stroke="#F68A3F" stroke-width="3" stroke-miterlimit="10"/>
<path d="M19.0274 43.3901C19.0274 43.3901 37.5648 37.2135 50.0221 12.0409" stroke="#F68A3F" stroke-width="3" stroke-miterlimit="10"/>
<path d="M26.2432 50.2853C26.2432 50.2853 47.0053 40.0321 54.8559 22.5129" stroke="#F68A3F" stroke-width="3" stroke-miterlimit="10"/>
<path d="M22.9818 24.3603L26.4179 27.8978L34.2277 20.2501" stroke="#F68A3F" stroke-width="3" stroke-miterlimit="10" stroke-linecap="round"/>
</g>
<defs>
<filter id="filter0_d" x="0.815796" y="0.968994" width="67.6823" height="71.7297" filterUnits="userSpaceOnUse" color-interpolation-filters="sRGB">
<feFlood flood-opacity="0" result="BackgroundImageFix"/>
<feColorMatrix in="SourceAlpha" type="matrix" values="0 0 0 0 0 0 0 0 0 0 0 0 0 0 0 0 0 0 127 0"/>
<feOffset dy="4"/>
<feGaussianBlur stdDeviation="6"/>
<feColorMatrix type="matrix" values="0 0 0 0 0 0 0 0 0 0 0 0 0 0 0 0 0 0 0.25 0"/>
<feBlend mode="normal" in2="BackgroundImageFix" result="effect1_dropShadow"/>
<feBlend mode="normal" in="SourceGraphic" in2="effect1_dropShadow" result="shape"/>
</filter>
</defs>
</svg>
