<svg width="82" height="45" viewBox="0 0 82 45" fill="none" xmlns="http://www.w3.org/2000/svg">
<path d="M76.0085 3.52497L64.4756 7.36573C64.4756 7.36573 49.1586 -0.306571 36.058 1.19473C22.9574 2.69603 24.8315 17.9209 27.7417 19.4222C30.6519 20.9235 33.373 13.5275 38.2023 12.9749C43.0317 12.4223 58.8443 25.1787 62.0609 29.0195C62.0609 29.0195 65.9533 31.2116 66.4849 27.1037L68.0796 33.2655H79.8918L76.0085 3.52497Z" stroke="#F68A3F" stroke-width="2" stroke-miterlimit="10"/>
<path d="M2 31.7551C2 31.7551 6.55909 15.2776 6.16265 3.38684L17.6865 5.31183C17.6865 5.31183 17 25.1872 13.8032 31.6262H10L2 31.7551Z" stroke="#F68A3F" stroke-width="2" stroke-miterlimit="10"/>
<path d="M14.47 27.7853C14.47 27.7853 34.1749 43.83 38.3466 43.4063C42.5182 42.9826 47.5909 42.7247 37.2744 34.7761C37.2744 34.7761 52.0148 47.3852 50.411 37.3734L40.7522 29.0195C40.7522 29.0195 51.0687 40.3945 55.4656 36.6919C59.8625 32.9893 46.4556 24.9025 46.4556 24.9025C46.4556 24.9025 57.7181 36.1485 60.5383 32.584C63.3584 29.0195 61.4393 28.3288 61.4393 28.3288" stroke="#F68A3F" stroke-width="2" stroke-miterlimit="10"/>
<path d="M17.6865 5.31177L28.012 5.45068" stroke="#F68A3F" stroke-width="2" stroke-miterlimit="10"/>
<path d="M64.4757 7.36572L66.3588 25.8695" stroke="#F68A3F" stroke-width="2" stroke-miterlimit="10"/>
</svg>
