<svg width="2306" height="952" viewBox="0 0 2306 952" fill="none" xmlns="http://www.w3.org/2000/svg">
<path opacity="0.2" d="M1275.36 675.698C957.017 924.171 478.648 857.751 280.217 754.221C178.983 709.808 121.199 549.494 104 514.151V0H2250V860.746L2132.09 774.221L2129.6 772.626C1975.01 673.689 1591.99 428.564 1275.36 675.698Z" fill="url(#paint0_linear)"/>
<g opacity="0.2" filter="url(#filter0_d)">
<path d="M1246.36 695.616C928.017 944.059 451.57 733.123 253.139 629.605C151.905 585.197 92.199 569.428 75 534.089V19.9999H2221V785.128L2103.09 698.613C1950.16 600.763 1564.7 447.174 1246.36 695.616Z" fill="url(#paint1_radial)"/>
</g>
<defs>
<filter id="filter0_d" x="0" y="-0.00012207" width="2306" height="952" filterUnits="userSpaceOnUse" color-interpolation-filters="sRGB">
<feFlood flood-opacity="0" result="BackgroundImageFix"/>
<feColorMatrix in="SourceAlpha" type="matrix" values="0 0 0 0 0 0 0 0 0 0 0 0 0 0 0 0 0 0 127 0"/>
<feOffset dx="5" dy="60"/>
<feGaussianBlur stdDeviation="40"/>
<feColorMatrix type="matrix" values="0 0 0 0 0 0 0 0 0 0 0 0 0 0 0 0 0 0 1 0"/>
<feBlend mode="normal" in2="BackgroundImageFix" result="effect1_dropShadow"/>
<feBlend mode="normal" in="SourceGraphic" in2="effect1_dropShadow" result="shape"/>
</filter>
<linearGradient id="paint0_linear" x1="1787.35" y1="871.255" x2="1771.7" y2="282.999" gradientUnits="userSpaceOnUse">
<stop stop-color="#5C6270"/>
<stop offset="1" stop-color="#171B23" stop-opacity="0"/>
</linearGradient>
<radialGradient id="paint1_radial" cx="0" cy="0" r="1" gradientUnits="userSpaceOnUse" gradientTransform="translate(1511.01 578.596) rotate(-90) scale(418.072 1386.39)">
<stop stop-color="#5C6270" stop-opacity="0.78"/>
<stop offset="1" stop-color="#181B23"/>
</radialGradient>
</defs>
</svg>
