<svg width="415" height="415" viewBox="0 0 415 415" fill="none" xmlns="http://www.w3.org/2000/svg">
<g filter="url(#filter0_di)">
<path d="M274 207.5C274 244.227 244.227 274 207.5 274C170.773 274 141 244.227 141 207.5C141 170.773 170.773 141 207.5 141C244.227 141 274 170.773 274 207.5Z" fill="url(#paint0_linear)"/>
</g>
<g filter="url(#filter1_i)">
<path d="M207 200C217.493 200 226 191.493 226 181C226 170.507 217.493 162 207 162C196.507 162 188 170.507 188 181C188 191.493 196.507 200 207 200Z" fill="#44CBB3"/>
</g>
<g filter="url(#filter2_i)">
<path d="M173.224 239.585C173.224 239.585 168.113 208.794 206.712 209.001C245.311 209.209 240.842 240 240.842 240L173.224 239.585Z" fill="#44CBB3"/>
</g>
<g filter="url(#filter3_i)">
<path d="M225.841 222.757C225.438 222.735 224.491 221.028 224.041 221.005C223.496 220.893 222.502 222.667 222.147 222.757C221.791 222.847 220.039 222.128 219.684 222.353C219.329 222.578 219.447 224.577 219.305 224.801C219.163 225.026 217.242 225.27 217.032 225.767C216.795 226.329 218.31 227.834 218.145 228.014C218.192 228.261 217.434 228.98 217.103 229.609C216.771 230.238 217.34 230.552 217.434 230.53C217.529 230.507 218.997 230.979 219.305 231.361C219.613 231.743 219.139 233.27 219.684 233.63C220.371 233.832 221.46 233.27 222.076 233.27C222.691 233.27 223.473 235 224.017 235C224.562 235 225.225 233.517 225.841 233.27C226.599 233.158 227.925 234.034 228.375 233.63C228.706 233.113 228.469 231.675 228.706 231.271C228.801 230.867 230.814 230.709 230.956 230.125C231.098 229.541 229.866 228.463 229.866 228.014C229.866 227.565 231.264 226.217 230.956 225.767C230.743 225.296 228.967 225.071 228.706 224.712C228.446 224.352 228.753 222.622 228.28 222.353C227.806 222.083 226.243 222.78 225.841 222.757Z" fill="url(#paint1_radial)"/>
</g>
<path d="M223.796 222.439C223.857 222.366 223.912 222.299 223.964 222.24C224.028 222.318 224.099 222.406 224.176 222.503C224.187 222.518 224.2 222.533 224.212 222.549C224.366 222.743 224.549 222.974 224.721 223.159C224.815 223.259 224.933 223.377 225.067 223.477C225.173 223.556 225.43 223.736 225.785 223.756C225.966 223.766 226.137 223.736 226.237 223.716C226.354 223.693 226.477 223.661 226.59 223.63C226.699 223.6 226.815 223.566 226.927 223.533L226.945 223.528C227.065 223.493 227.183 223.459 227.299 223.427C227.396 223.4 227.485 223.377 227.567 223.357C227.569 223.41 227.572 223.466 227.573 223.528C227.575 223.587 227.576 223.653 227.578 223.724C227.582 223.909 227.586 224.123 227.599 224.299C227.608 224.428 227.623 224.578 227.654 224.726C227.681 224.854 227.741 225.084 227.896 225.298L228.706 224.712L227.896 225.298C228.056 225.519 228.263 225.647 228.38 225.713C228.514 225.788 228.656 225.848 228.78 225.896C228.979 225.972 229.215 226.046 229.419 226.11C229.463 226.124 229.505 226.138 229.546 226.15C229.627 226.176 229.702 226.201 229.771 226.224C229.75 226.255 229.728 226.288 229.704 226.322C229.664 226.379 229.619 226.444 229.57 226.513C229.459 226.67 229.334 226.847 229.238 226.996C229.165 227.11 229.085 227.244 229.019 227.384C228.965 227.502 228.866 227.734 228.866 228.014C228.866 228.278 228.951 228.496 229.008 228.623C229.072 228.762 229.15 228.892 229.219 228.998C229.319 229.15 229.448 229.325 229.557 229.474C229.593 229.521 229.626 229.566 229.656 229.607C229.689 229.653 229.72 229.697 229.749 229.737C229.68 229.76 229.604 229.784 229.521 229.809C229.481 229.821 229.439 229.834 229.395 229.847C229.18 229.912 228.92 229.991 228.71 230.074C228.582 230.124 228.414 230.198 228.259 230.305C228.147 230.382 227.911 230.562 227.784 230.878C227.648 231.17 227.618 231.486 227.604 231.656C227.588 231.854 227.583 232.08 227.579 232.275C227.578 232.312 227.577 232.349 227.576 232.383C227.574 232.468 227.572 232.547 227.568 232.62C227.555 232.616 227.542 232.612 227.528 232.607C227.487 232.594 227.442 232.579 227.395 232.564C227.2 232.501 226.961 232.423 226.738 232.366C226.468 232.298 226.085 232.223 225.694 232.281L225.578 232.298L225.468 232.342C225.09 232.494 224.805 232.782 224.631 232.974C224.465 233.158 224.3 233.371 224.167 233.545C224.148 233.569 224.129 233.593 224.112 233.616C224.081 233.655 224.052 233.692 224.025 233.727C223.977 233.667 223.925 233.601 223.868 233.528L223.859 233.517C223.697 233.311 223.482 233.039 223.256 232.82C223.075 232.646 222.657 232.27 222.076 232.27C221.793 232.27 221.51 232.332 221.298 232.384C221.174 232.415 221.016 232.459 220.875 232.498C220.791 232.521 220.713 232.543 220.651 232.559C220.561 232.583 220.479 232.603 220.404 232.62C220.404 232.591 220.405 232.561 220.405 232.529C220.406 232.484 220.408 232.432 220.41 232.376C220.416 232.197 220.424 231.975 220.417 231.789C220.412 231.659 220.4 231.499 220.364 231.336C220.329 231.181 220.257 230.949 220.084 230.733C219.87 230.468 219.561 230.288 219.368 230.185C219.138 230.062 218.883 229.952 218.653 229.862C218.506 229.805 218.361 229.752 218.228 229.708C218.306 229.602 218.396 229.487 218.495 229.36C218.514 229.334 218.535 229.308 218.555 229.282C218.664 229.142 218.796 228.97 218.898 228.807C218.949 228.725 219.013 228.612 219.063 228.481C219.087 228.417 219.123 228.31 219.139 228.175C219.161 228.053 219.159 227.946 219.153 227.873C219.137 227.705 219.086 227.57 219.056 227.5C218.993 227.352 218.906 227.213 218.843 227.117C218.763 226.994 218.647 226.833 218.539 226.682C218.482 226.603 218.427 226.526 218.381 226.46C218.32 226.374 218.266 226.294 218.218 226.22C218.295 226.195 218.38 226.169 218.471 226.143C218.554 226.119 218.655 226.091 218.76 226.062C218.92 226.018 219.089 225.971 219.212 225.933C219.323 225.899 219.455 225.856 219.576 225.803C219.637 225.777 219.719 225.737 219.803 225.682C219.874 225.637 220.029 225.528 220.15 225.336C220.242 225.191 220.281 225.051 220.297 224.991C220.316 224.915 220.329 224.842 220.337 224.784C220.354 224.667 220.364 224.538 220.372 224.42C220.379 224.311 220.387 224.15 220.395 223.992C220.401 223.862 220.407 223.733 220.413 223.636C220.417 223.557 220.422 223.482 220.428 223.411C220.5 223.429 220.577 223.449 220.658 223.471C220.719 223.487 220.784 223.505 220.85 223.523C221.045 223.576 221.256 223.633 221.435 223.674C221.558 223.703 221.694 223.731 221.826 223.748C221.924 223.761 222.152 223.787 222.392 223.727C222.697 223.65 222.909 223.456 222.982 223.39C223.09 223.292 223.191 223.179 223.276 223.08C223.375 222.964 223.498 222.81 223.613 222.667C223.679 222.584 223.742 222.505 223.796 222.439ZM227.988 223.291C227.988 223.292 227.984 223.291 227.977 223.291C227.985 223.291 227.989 223.291 227.988 223.291ZM227.521 222.948C227.514 222.93 227.511 222.919 227.512 222.918C227.512 222.917 227.516 222.926 227.521 222.948ZM229.981 230.13C229.981 230.13 229.979 230.125 229.977 230.116C229.98 230.126 229.982 230.13 229.981 230.13ZM228.047 232.737C228.047 232.738 228.043 232.738 228.032 232.737C228.041 232.737 228.047 232.737 228.047 232.737ZM223.698 234.09C223.698 234.089 223.705 234.083 223.717 234.075C223.704 234.086 223.698 234.09 223.698 234.09ZM220.429 233.028C220.429 233.028 220.428 233.025 220.426 233.017C220.429 233.024 220.43 233.028 220.429 233.028Z" stroke="url(#paint2_linear)" stroke-width="2"/>
<g filter="url(#filter4_di)">
<path d="M222.921 229.152L222.215 228.395L221.823 227.975C221.719 227.919 221.447 227.874 221.196 228.143C220.946 228.412 220.987 228.703 221.04 228.815L222.921 231C224.123 229.768 226.573 227.253 226.761 227.051L226.761 227.051C226.996 226.799 227.153 226.631 226.761 226.211C226.448 225.875 226.16 226.015 226.056 226.127L224.488 227.639L222.921 229.152Z" fill="#3DC5AD"/>
</g>
<g opacity="0.2" filter="url(#filter5_ddiif)">
<path fill-rule="evenodd" clip-rule="evenodd" d="M207.5 378C301.665 378 378 301.665 378 207.5C378 113.335 301.665 37 207.5 37C113.335 37 37 113.335 37 207.5C37 301.665 113.335 378 207.5 378ZM207.5 365.474C294.746 365.474 365.473 294.746 365.473 207.5C365.473 120.254 294.746 49.5266 207.5 49.5266C120.254 49.5266 49.5266 120.254 49.5266 207.5C49.5266 294.746 120.254 365.474 207.5 365.474Z" fill="#181C25"/>
</g>
<g opacity="0.2" filter="url(#filter6_ddiif)">
<path fill-rule="evenodd" clip-rule="evenodd" d="M208.033 310.996C264.785 310.996 310.792 264.989 310.792 208.237C310.792 151.484 264.785 105.478 208.033 105.478C151.281 105.478 105.274 151.484 105.274 208.237C105.274 264.989 151.281 310.996 208.033 310.996ZM208.033 303.446C260.616 303.446 303.243 260.82 303.243 208.237C303.243 155.654 260.616 113.027 208.033 113.027C155.45 113.027 112.823 155.654 112.823 208.237C112.823 260.82 155.45 303.446 208.033 303.446Z" fill="#181C25"/>
</g>
<defs>
<filter id="filter0_di" x="125" y="125" width="173" height="173" filterUnits="userSpaceOnUse" color-interpolation-filters="sRGB">
<feFlood flood-opacity="0" result="BackgroundImageFix"/>
<feColorMatrix in="SourceAlpha" type="matrix" values="0 0 0 0 0 0 0 0 0 0 0 0 0 0 0 0 0 0 127 0"/>
<feOffset dx="4" dy="4"/>
<feGaussianBlur stdDeviation="10"/>
<feColorMatrix type="matrix" values="0 0 0 0 0.483333 0 0 0 0 0.483333 0 0 0 0 0.483333 0 0 0 0.08 0"/>
<feBlend mode="normal" in2="BackgroundImageFix" result="effect1_dropShadow"/>
<feBlend mode="normal" in="SourceGraphic" in2="effect1_dropShadow" result="shape"/>
<feColorMatrix in="SourceAlpha" type="matrix" values="0 0 0 0 0 0 0 0 0 0 0 0 0 0 0 0 0 0 127 0" result="hardAlpha"/>
<feOffset dy="-6"/>
<feGaussianBlur stdDeviation="3"/>
<feComposite in2="hardAlpha" operator="arithmetic" k2="-1" k3="1"/>
<feColorMatrix type="matrix" values="0 0 0 0 0 0 0 0 0 0 0 0 0 0 0 0 0 0 0.4 0"/>
<feBlend mode="normal" in2="shape" result="effect2_innerShadow"/>
</filter>
<filter id="filter1_i" x="188" y="162" width="39" height="40" filterUnits="userSpaceOnUse" color-interpolation-filters="sRGB">
<feFlood flood-opacity="0" result="BackgroundImageFix"/>
<feBlend mode="normal" in="SourceGraphic" in2="BackgroundImageFix" result="shape"/>
<feColorMatrix in="SourceAlpha" type="matrix" values="0 0 0 0 0 0 0 0 0 0 0 0 0 0 0 0 0 0 127 0" result="hardAlpha"/>
<feOffset dx="1" dy="2"/>
<feGaussianBlur stdDeviation="5"/>
<feComposite in2="hardAlpha" operator="arithmetic" k2="-1" k3="1"/>
<feColorMatrix type="matrix" values="0 0 0 0 0 0 0 0 0 0 0 0 0 0 0 0 0 0 0.2 0"/>
<feBlend mode="normal" in2="shape" result="effect1_innerShadow"/>
</filter>
<filter id="filter2_i" x="173" y="209" width="69" height="33" filterUnits="userSpaceOnUse" color-interpolation-filters="sRGB">
<feFlood flood-opacity="0" result="BackgroundImageFix"/>
<feBlend mode="normal" in="SourceGraphic" in2="BackgroundImageFix" result="shape"/>
<feColorMatrix in="SourceAlpha" type="matrix" values="0 0 0 0 0 0 0 0 0 0 0 0 0 0 0 0 0 0 127 0" result="hardAlpha"/>
<feOffset dx="1" dy="2"/>
<feGaussianBlur stdDeviation="5"/>
<feComposite in2="hardAlpha" operator="arithmetic" k2="-1" k3="1"/>
<feColorMatrix type="matrix" values="0 0 0 0 0 0 0 0 0 0 0 0 0 0 0 0 0 0 0.2 0"/>
<feBlend mode="normal" in2="shape" result="effect1_innerShadow"/>
</filter>
<filter id="filter3_i" x="217" y="220" width="14" height="15" filterUnits="userSpaceOnUse" color-interpolation-filters="sRGB">
<feFlood flood-opacity="0" result="BackgroundImageFix"/>
<feBlend mode="normal" in="SourceGraphic" in2="BackgroundImageFix" result="shape"/>
<feColorMatrix in="SourceAlpha" type="matrix" values="0 0 0 0 0 0 0 0 0 0 0 0 0 0 0 0 0 0 127 0" result="hardAlpha"/>
<feOffset dy="-1"/>
<feGaussianBlur stdDeviation="0.5"/>
<feComposite in2="hardAlpha" operator="arithmetic" k2="-1" k3="1"/>
<feColorMatrix type="matrix" values="0 0 0 0 0 0 0 0 0 0 0 0 0 0 0 0 0 0 0.25 0"/>
<feBlend mode="normal" in2="shape" result="effect1_innerShadow"/>
</filter>
<filter id="filter4_di" x="221" y="226" width="159" height="145" filterUnits="userSpaceOnUse" color-interpolation-filters="sRGB">
<feFlood flood-opacity="0" result="BackgroundImageFix"/>
<feColorMatrix in="SourceAlpha" type="matrix" values="0 0 0 0 0 0 0 0 0 0 0 0 0 0 0 0 0 0 127 0"/>
<feOffset dx="93" dy="80"/>
<feGaussianBlur stdDeviation="30"/>
<feColorMatrix type="matrix" values="0 0 0 0 0.641667 0 0 0 0 0.641667 0 0 0 0 0.641667 0 0 0 0.6 0"/>
<feBlend mode="normal" in2="BackgroundImageFix" result="effect1_dropShadow"/>
<feBlend mode="normal" in="SourceGraphic" in2="effect1_dropShadow" result="shape"/>
<feColorMatrix in="SourceAlpha" type="matrix" values="0 0 0 0 0 0 0 0 0 0 0 0 0 0 0 0 0 0 127 0" result="hardAlpha"/>
<feOffset dx="-24" dy="4"/>
<feGaussianBlur stdDeviation="2"/>
<feComposite in2="hardAlpha" operator="arithmetic" k2="-1" k3="1"/>
<feColorMatrix type="matrix" values="0 0 0 0 0 0 0 0 0 0 0 0 0 0 0 0 0 0 0.25 0"/>
<feBlend mode="normal" in2="shape" result="effect2_innerShadow"/>
</filter>
<filter id="filter5_ddiif" x="0" y="0" width="415" height="415" filterUnits="userSpaceOnUse" color-interpolation-filters="sRGB">
<feFlood flood-opacity="0" result="BackgroundImageFix"/>
<feColorMatrix in="SourceAlpha" type="matrix" values="0 0 0 0 0 0 0 0 0 0 0 0 0 0 0 0 0 0 127 0"/>
<feOffset dx="-12" dy="-12"/>
<feGaussianBlur stdDeviation="12.5"/>
<feColorMatrix type="matrix" values="0 0 0 0 0.366406 0 0 0 0 0.389134 0 0 0 0 0.4375 0 0 0 1 0"/>
<feBlend mode="normal" in2="BackgroundImageFix" result="effect1_dropShadow"/>
<feColorMatrix in="SourceAlpha" type="matrix" values="0 0 0 0 0 0 0 0 0 0 0 0 0 0 0 0 0 0 127 0"/>
<feOffset dx="12" dy="12"/>
<feGaussianBlur stdDeviation="12.5"/>
<feColorMatrix type="matrix" values="0 0 0 0 0 0 0 0 0 0 0 0 0 0 0 0 0 0 1 0"/>
<feBlend mode="normal" in2="effect1_dropShadow" result="effect2_dropShadow"/>
<feBlend mode="normal" in="SourceGraphic" in2="effect2_dropShadow" result="shape"/>
<feColorMatrix in="SourceAlpha" type="matrix" values="0 0 0 0 0 0 0 0 0 0 0 0 0 0 0 0 0 0 127 0" result="hardAlpha"/>
<feOffset dx="-12" dy="-12"/>
<feGaussianBlur stdDeviation="7.5"/>
<feComposite in2="hardAlpha" operator="arithmetic" k2="-1" k3="1"/>
<feColorMatrix type="matrix" values="0 0 0 0 0.23 0 0 0 0 0.248667 0 0 0 0 0.3 0 0 0 1 0"/>
<feBlend mode="normal" in2="shape" result="effect3_innerShadow"/>
<feColorMatrix in="SourceAlpha" type="matrix" values="0 0 0 0 0 0 0 0 0 0 0 0 0 0 0 0 0 0 127 0" result="hardAlpha"/>
<feOffset dx="-12" dy="-12"/>
<feGaussianBlur stdDeviation="7.5"/>
<feComposite in2="hardAlpha" operator="arithmetic" k2="-1" k3="1"/>
<feColorMatrix type="matrix" values="0 0 0 0 0 0 0 0 0 0 0 0 0 0 0 0 0 0 0.58 0"/>
<feBlend mode="normal" in2="effect3_innerShadow" result="effect4_innerShadow"/>
<feGaussianBlur stdDeviation="5" result="effect5_foregroundBlur"/>
</filter>
<filter id="filter6_ddiif" x="68.2737" y="68.4775" width="279.519" height="279.519" filterUnits="userSpaceOnUse" color-interpolation-filters="sRGB">
<feFlood flood-opacity="0" result="BackgroundImageFix"/>
<feColorMatrix in="SourceAlpha" type="matrix" values="0 0 0 0 0 0 0 0 0 0 0 0 0 0 0 0 0 0 127 0"/>
<feOffset dx="-12" dy="-12"/>
<feGaussianBlur stdDeviation="12.5"/>
<feColorMatrix type="matrix" values="0 0 0 0 0.366406 0 0 0 0 0.389134 0 0 0 0 0.4375 0 0 0 1 0"/>
<feBlend mode="normal" in2="BackgroundImageFix" result="effect1_dropShadow"/>
<feColorMatrix in="SourceAlpha" type="matrix" values="0 0 0 0 0 0 0 0 0 0 0 0 0 0 0 0 0 0 127 0"/>
<feOffset dx="12" dy="12"/>
<feGaussianBlur stdDeviation="12.5"/>
<feColorMatrix type="matrix" values="0 0 0 0 0 0 0 0 0 0 0 0 0 0 0 0 0 0 1 0"/>
<feBlend mode="normal" in2="effect1_dropShadow" result="effect2_dropShadow"/>
<feBlend mode="normal" in="SourceGraphic" in2="effect2_dropShadow" result="shape"/>
<feColorMatrix in="SourceAlpha" type="matrix" values="0 0 0 0 0 0 0 0 0 0 0 0 0 0 0 0 0 0 127 0" result="hardAlpha"/>
<feOffset dx="-12" dy="-12"/>
<feGaussianBlur stdDeviation="7.5"/>
<feComposite in2="hardAlpha" operator="arithmetic" k2="-1" k3="1"/>
<feColorMatrix type="matrix" values="0 0 0 0 0.23 0 0 0 0 0.248667 0 0 0 0 0.3 0 0 0 1 0"/>
<feBlend mode="normal" in2="shape" result="effect3_innerShadow"/>
<feColorMatrix in="SourceAlpha" type="matrix" values="0 0 0 0 0 0 0 0 0 0 0 0 0 0 0 0 0 0 127 0" result="hardAlpha"/>
<feOffset dx="-12" dy="-12"/>
<feGaussianBlur stdDeviation="7.5"/>
<feComposite in2="hardAlpha" operator="arithmetic" k2="-1" k3="1"/>
<feColorMatrix type="matrix" values="0 0 0 0 0 0 0 0 0 0 0 0 0 0 0 0 0 0 0.58 0"/>
<feBlend mode="normal" in2="effect3_innerShadow" result="effect4_innerShadow"/>
<feGaussianBlur stdDeviation="5" result="effect5_foregroundBlur"/>
</filter>
<linearGradient id="paint0_linear" x1="344.667" y1="205.899" x2="281.089" y2="121.285" gradientUnits="userSpaceOnUse">
<stop stop-color="white" stop-opacity="0.67"/>
<stop offset="1" stop-color="white"/>
</linearGradient>
<radialGradient id="paint1_radial" cx="0" cy="0" r="1" gradientUnits="userSpaceOnUse" gradientTransform="translate(219.163 223.673) rotate(41.8838) scale(14.8689 26.7376)">
<stop stop-color="#E2E2E2"/>
<stop offset="1" stop-color="white"/>
</radialGradient>
<linearGradient id="paint2_linear" x1="216.184" y1="225.689" x2="228.415" y2="231.056" gradientUnits="userSpaceOnUse">
<stop stop-color="white"/>
<stop offset="0.267064" stop-color="white" stop-opacity="0"/>
</linearGradient>
</defs>
</svg>
